M48
;GenerationSoftware,Autodesk,EAGLE,9.3.0*%
;CreationDate,2019-04-20T11:58:04Z*%
FMAT,2
ICI,OFF
METRIC,TZ,000.000
T6C1.000
T5C1.016
T4C1.200
T3C2.000
T2C2.200
T1C3.500
%
G90
M71
T1
X5080Y35560
X5080Y5080
X87630Y5080
X87630Y35560
T2
X41590Y27240
X65090Y27240
X65090Y3240
X41590Y3240
T3
X71200Y30980
X81200Y30980
T4
X82450Y6390
X82450Y11390
X69950Y11390
X69950Y6390
T5
X12700Y27940
X12700Y25400
X12700Y22860
X12700Y20320
X12700Y17780
X12700Y15240
X12700Y12700
X12700Y10160
X35560Y27940
X35560Y25400
X35560Y22860
X35560Y20320
X35560Y17780
X35560Y15240
X35560Y12700
X35560Y10160
T6
X73406Y24130
X78994Y24130
X52070Y27740
X54610Y27740
X57150Y27740
X49530Y27740
X76200Y24130
X60960Y34290
X66040Y34290
X50800Y34290
X55880Y34290
X40640Y34290
X45720Y34290
M30