G04 EAGLE Gerber RS-274X export*
G75*
%MOMM*%
%FSLAX34Y34*%
%LPD*%
%INTop Copper*%
%IPPOS*%
%AMOC8*
5,1,8,0,0,1.08239X$1,22.5*%
G01*
%ADD10C,2.159000*%
%ADD11R,1.100000X1.000000*%
%ADD12R,2.200000X0.600000*%
%ADD13C,3.810000*%
%ADD14C,2.184400*%
%ADD15R,1.000000X1.100000*%
%ADD16C,1.930400*%
%ADD17C,1.828800*%
%ADD18C,2.540000*%
%ADD19C,0.609600*%

G36*
X408724Y10938D02*
X408724Y10938D01*
X408821Y10948D01*
X408845Y10958D01*
X408871Y10962D01*
X408957Y11008D01*
X409046Y11048D01*
X409065Y11065D01*
X409088Y11078D01*
X409155Y11148D01*
X409227Y11214D01*
X409239Y11237D01*
X409258Y11256D01*
X409299Y11344D01*
X409345Y11430D01*
X409350Y11455D01*
X409361Y11479D01*
X409372Y11576D01*
X409389Y11672D01*
X409385Y11698D01*
X409388Y11723D01*
X409368Y11819D01*
X409353Y11915D01*
X409342Y11938D01*
X409336Y11964D01*
X409286Y12047D01*
X409242Y12134D01*
X409223Y12153D01*
X409210Y12175D01*
X409136Y12238D01*
X409066Y12306D01*
X409038Y12322D01*
X409023Y12335D01*
X408992Y12347D01*
X408919Y12387D01*
X403913Y14461D01*
X397961Y20413D01*
X394739Y28191D01*
X394739Y36609D01*
X397961Y44387D01*
X403913Y50339D01*
X411691Y53561D01*
X420109Y53561D01*
X427887Y50339D01*
X433839Y44387D01*
X437061Y36609D01*
X437061Y28191D01*
X433839Y20413D01*
X427887Y14461D01*
X422881Y12387D01*
X422798Y12336D01*
X422712Y12290D01*
X422694Y12271D01*
X422672Y12258D01*
X422609Y12183D01*
X422542Y12112D01*
X422531Y12088D01*
X422515Y12068D01*
X422480Y11977D01*
X422439Y11889D01*
X422436Y11863D01*
X422427Y11839D01*
X422422Y11741D01*
X422412Y11645D01*
X422417Y11619D01*
X422416Y11593D01*
X422443Y11499D01*
X422464Y11404D01*
X422477Y11382D01*
X422485Y11357D01*
X422540Y11277D01*
X422590Y11193D01*
X422610Y11176D01*
X422625Y11155D01*
X422703Y11096D01*
X422777Y11033D01*
X422801Y11023D01*
X422822Y11008D01*
X422915Y10978D01*
X423005Y10941D01*
X423038Y10938D01*
X423056Y10932D01*
X423089Y10932D01*
X423172Y10923D01*
X643628Y10923D01*
X643724Y10938D01*
X643821Y10948D01*
X643845Y10958D01*
X643871Y10962D01*
X643957Y11008D01*
X644046Y11048D01*
X644065Y11065D01*
X644088Y11078D01*
X644155Y11148D01*
X644227Y11214D01*
X644239Y11237D01*
X644258Y11256D01*
X644299Y11344D01*
X644345Y11430D01*
X644350Y11455D01*
X644361Y11479D01*
X644372Y11576D01*
X644389Y11672D01*
X644385Y11698D01*
X644388Y11723D01*
X644368Y11819D01*
X644353Y11915D01*
X644342Y11938D01*
X644336Y11964D01*
X644286Y12047D01*
X644242Y12134D01*
X644223Y12153D01*
X644210Y12175D01*
X644136Y12238D01*
X644066Y12306D01*
X644038Y12322D01*
X644023Y12335D01*
X643992Y12347D01*
X643919Y12387D01*
X638913Y14461D01*
X632961Y20413D01*
X629739Y28191D01*
X629739Y36609D01*
X632961Y44387D01*
X638913Y50339D01*
X646691Y53561D01*
X655109Y53561D01*
X662887Y50339D01*
X668839Y44387D01*
X672061Y36609D01*
X672061Y28191D01*
X668839Y20413D01*
X662887Y14461D01*
X657881Y12387D01*
X657798Y12336D01*
X657712Y12290D01*
X657694Y12271D01*
X657672Y12258D01*
X657609Y12183D01*
X657542Y12112D01*
X657531Y12088D01*
X657515Y12068D01*
X657480Y11977D01*
X657439Y11889D01*
X657436Y11863D01*
X657427Y11839D01*
X657422Y11741D01*
X657412Y11645D01*
X657417Y11619D01*
X657416Y11593D01*
X657443Y11499D01*
X657464Y11404D01*
X657477Y11382D01*
X657485Y11357D01*
X657540Y11277D01*
X657590Y11193D01*
X657610Y11176D01*
X657625Y11155D01*
X657703Y11096D01*
X657777Y11033D01*
X657801Y11023D01*
X657822Y11008D01*
X657915Y10978D01*
X658005Y10941D01*
X658038Y10938D01*
X658056Y10932D01*
X658089Y10932D01*
X658172Y10923D01*
X897100Y10923D01*
X897119Y10926D01*
X897150Y10924D01*
X899540Y11081D01*
X899564Y11086D01*
X899688Y11105D01*
X904306Y12343D01*
X904321Y12349D01*
X904336Y12352D01*
X904490Y12419D01*
X908631Y14810D01*
X908643Y14820D01*
X908657Y14826D01*
X908727Y14881D01*
X908732Y14884D01*
X908737Y14889D01*
X908788Y14931D01*
X912169Y18312D01*
X912179Y18324D01*
X912191Y18334D01*
X912290Y18469D01*
X914681Y22610D01*
X914687Y22625D01*
X914696Y22637D01*
X914757Y22794D01*
X915995Y27412D01*
X915997Y27436D01*
X916019Y27559D01*
X916176Y29950D01*
X916174Y29969D01*
X916177Y30000D01*
X916177Y376400D01*
X916174Y376418D01*
X916176Y376450D01*
X916019Y378840D01*
X916014Y378864D01*
X915995Y378988D01*
X914757Y383606D01*
X914751Y383621D01*
X914748Y383636D01*
X914681Y383790D01*
X912290Y387931D01*
X912280Y387943D01*
X912274Y387957D01*
X912169Y388088D01*
X908788Y391469D01*
X908776Y391479D01*
X908766Y391491D01*
X908631Y391590D01*
X904490Y393981D01*
X904475Y393987D01*
X904463Y393996D01*
X904327Y394049D01*
X904314Y394055D01*
X904311Y394055D01*
X904306Y394057D01*
X899688Y395295D01*
X899664Y395297D01*
X899541Y395319D01*
X897150Y395476D01*
X897131Y395474D01*
X897100Y395477D01*
X30000Y395477D01*
X29981Y395474D01*
X29950Y395476D01*
X27560Y395319D01*
X27536Y395314D01*
X27412Y395295D01*
X22794Y394057D01*
X22779Y394051D01*
X22764Y394048D01*
X22610Y393981D01*
X18469Y391590D01*
X18457Y391580D01*
X18443Y391574D01*
X18312Y391469D01*
X14931Y388088D01*
X14921Y388076D01*
X14909Y388066D01*
X14810Y387931D01*
X12419Y383790D01*
X12413Y383775D01*
X12404Y383763D01*
X12343Y383606D01*
X11105Y378988D01*
X11103Y378964D01*
X11081Y378840D01*
X10924Y376450D01*
X10926Y376431D01*
X10923Y376400D01*
X10923Y30000D01*
X10926Y29981D01*
X10924Y29950D01*
X11081Y27560D01*
X11086Y27536D01*
X11105Y27412D01*
X12343Y22794D01*
X12349Y22779D01*
X12352Y22764D01*
X12419Y22610D01*
X14810Y18469D01*
X14820Y18457D01*
X14826Y18443D01*
X14931Y18312D01*
X18312Y14931D01*
X18324Y14921D01*
X18334Y14909D01*
X18469Y14810D01*
X22610Y12419D01*
X22625Y12413D01*
X22637Y12404D01*
X22794Y12343D01*
X27412Y11105D01*
X27436Y11103D01*
X27560Y11081D01*
X29950Y10924D01*
X29969Y10926D01*
X30000Y10923D01*
X408628Y10923D01*
X408724Y10938D01*
G37*
%LPC*%
G36*
X697049Y51580D02*
X697049Y51580D01*
X692521Y53456D01*
X689056Y56921D01*
X688254Y58857D01*
X688192Y58957D01*
X688132Y59057D01*
X688128Y59061D01*
X688124Y59066D01*
X688034Y59141D01*
X687946Y59217D01*
X687940Y59219D01*
X687935Y59223D01*
X687826Y59265D01*
X687717Y59309D01*
X687710Y59310D01*
X687705Y59311D01*
X687687Y59312D01*
X687551Y59327D01*
X340606Y59327D01*
X312927Y87006D01*
X312927Y200991D01*
X312913Y201080D01*
X312905Y201172D01*
X312893Y201201D01*
X312888Y201233D01*
X312845Y201314D01*
X312809Y201398D01*
X312783Y201430D01*
X312772Y201451D01*
X312749Y201473D01*
X312704Y201529D01*
X290429Y223804D01*
X290355Y223857D01*
X290285Y223917D01*
X290255Y223929D01*
X290229Y223948D01*
X290142Y223975D01*
X290057Y224009D01*
X290016Y224013D01*
X289994Y224020D01*
X289962Y224019D01*
X289891Y224027D01*
X146306Y224027D01*
X146192Y224008D01*
X146075Y223991D01*
X146070Y223989D01*
X146064Y223988D01*
X145961Y223933D01*
X145856Y223880D01*
X145852Y223875D01*
X145846Y223872D01*
X145766Y223788D01*
X145684Y223704D01*
X145680Y223698D01*
X145677Y223694D01*
X145669Y223677D01*
X145603Y223557D01*
X145189Y222557D01*
X142187Y219555D01*
X138266Y217931D01*
X115734Y217931D01*
X111813Y219555D01*
X108811Y222557D01*
X107187Y226478D01*
X107187Y230722D01*
X108811Y234643D01*
X111813Y237645D01*
X115734Y239269D01*
X138266Y239269D01*
X142187Y237645D01*
X145189Y234643D01*
X145603Y233643D01*
X145665Y233543D01*
X145725Y233443D01*
X145729Y233439D01*
X145733Y233434D01*
X145823Y233359D01*
X145911Y233283D01*
X145917Y233281D01*
X145922Y233277D01*
X146031Y233235D01*
X146140Y233191D01*
X146147Y233190D01*
X146152Y233189D01*
X146170Y233188D01*
X146306Y233173D01*
X293994Y233173D01*
X296896Y230271D01*
X322073Y205094D01*
X322073Y91109D01*
X322087Y91019D01*
X322095Y90928D01*
X322107Y90899D01*
X322112Y90867D01*
X322155Y90786D01*
X322191Y90702D01*
X322217Y90670D01*
X322228Y90649D01*
X322251Y90627D01*
X322296Y90571D01*
X344171Y68696D01*
X344245Y68643D01*
X344315Y68583D01*
X344345Y68571D01*
X344371Y68552D01*
X344458Y68525D01*
X344543Y68491D01*
X344584Y68487D01*
X344606Y68480D01*
X344638Y68481D01*
X344709Y68473D01*
X687551Y68473D01*
X687665Y68492D01*
X687782Y68509D01*
X687787Y68511D01*
X687793Y68512D01*
X687896Y68567D01*
X688001Y68620D01*
X688005Y68625D01*
X688011Y68628D01*
X688091Y68712D01*
X688173Y68796D01*
X688177Y68802D01*
X688180Y68806D01*
X688188Y68822D01*
X688254Y68943D01*
X689056Y70879D01*
X692521Y74344D01*
X697049Y76220D01*
X701951Y76220D01*
X706479Y74344D01*
X709944Y70879D01*
X710912Y68543D01*
X710973Y68443D01*
X711033Y68343D01*
X711038Y68339D01*
X711041Y68334D01*
X711131Y68259D01*
X711220Y68183D01*
X711226Y68181D01*
X711231Y68177D01*
X711339Y68135D01*
X711448Y68091D01*
X711456Y68090D01*
X711460Y68089D01*
X711479Y68088D01*
X711615Y68073D01*
X747091Y68073D01*
X747181Y68087D01*
X747272Y68095D01*
X747301Y68107D01*
X747333Y68112D01*
X747414Y68155D01*
X747498Y68191D01*
X747530Y68217D01*
X747551Y68228D01*
X747573Y68251D01*
X747629Y68296D01*
X765704Y86371D01*
X765757Y86445D01*
X765817Y86515D01*
X765829Y86545D01*
X765848Y86571D01*
X765875Y86658D01*
X765909Y86743D01*
X765913Y86784D01*
X765920Y86806D01*
X765919Y86838D01*
X765927Y86909D01*
X765927Y182714D01*
X765924Y182734D01*
X765926Y182753D01*
X765904Y182855D01*
X765888Y182957D01*
X765878Y182974D01*
X765874Y182994D01*
X765821Y183083D01*
X765772Y183174D01*
X765758Y183188D01*
X765748Y183205D01*
X765669Y183272D01*
X765594Y183344D01*
X765576Y183352D01*
X765561Y183365D01*
X765465Y183404D01*
X765371Y183447D01*
X765351Y183449D01*
X765333Y183457D01*
X765166Y183475D01*
X764868Y183475D01*
X763975Y184368D01*
X763975Y196632D01*
X764868Y197525D01*
X776132Y197525D01*
X777025Y196632D01*
X777025Y184368D01*
X776132Y183475D01*
X775834Y183475D01*
X775814Y183472D01*
X775795Y183474D01*
X775693Y183452D01*
X775591Y183436D01*
X775574Y183426D01*
X775554Y183422D01*
X775465Y183369D01*
X775374Y183320D01*
X775360Y183306D01*
X775343Y183296D01*
X775276Y183217D01*
X775204Y183142D01*
X775196Y183124D01*
X775183Y183109D01*
X775144Y183013D01*
X775101Y182919D01*
X775099Y182899D01*
X775091Y182881D01*
X775073Y182714D01*
X775073Y82806D01*
X751194Y58927D01*
X711284Y58927D01*
X711169Y58908D01*
X711053Y58891D01*
X711047Y58889D01*
X711041Y58888D01*
X710938Y58833D01*
X710833Y58780D01*
X710829Y58775D01*
X710824Y58772D01*
X710744Y58688D01*
X710661Y58604D01*
X710658Y58598D01*
X710654Y58594D01*
X710646Y58577D01*
X710580Y58457D01*
X709944Y56921D01*
X706479Y53456D01*
X701951Y51580D01*
X697049Y51580D01*
G37*
%LPD*%
%LPC*%
G36*
X115734Y268731D02*
X115734Y268731D01*
X111813Y270355D01*
X108811Y273357D01*
X107187Y277278D01*
X107187Y281522D01*
X108811Y285443D01*
X111813Y288445D01*
X115734Y290069D01*
X121666Y290069D01*
X121686Y290072D01*
X121705Y290070D01*
X121807Y290092D01*
X121909Y290108D01*
X121926Y290118D01*
X121946Y290122D01*
X122035Y290175D01*
X122126Y290224D01*
X122140Y290238D01*
X122157Y290248D01*
X122224Y290327D01*
X122296Y290402D01*
X122304Y290420D01*
X122317Y290435D01*
X122356Y290531D01*
X122399Y290625D01*
X122401Y290645D01*
X122409Y290663D01*
X122427Y290830D01*
X122427Y319394D01*
X150506Y347473D01*
X392389Y347473D01*
X392503Y347492D01*
X392620Y347509D01*
X392625Y347511D01*
X392631Y347512D01*
X392734Y347567D01*
X392839Y347620D01*
X392843Y347625D01*
X392849Y347628D01*
X392929Y347712D01*
X393011Y347796D01*
X393015Y347802D01*
X393018Y347806D01*
X393026Y347823D01*
X393092Y347943D01*
X394341Y350958D01*
X398342Y354959D01*
X403571Y357125D01*
X409229Y357125D01*
X414458Y354959D01*
X418459Y350958D01*
X420625Y345729D01*
X420625Y340071D01*
X418459Y334842D01*
X414458Y330841D01*
X409229Y328675D01*
X403571Y328675D01*
X398342Y330841D01*
X394341Y334842D01*
X393092Y337857D01*
X393030Y337957D01*
X392970Y338057D01*
X392966Y338061D01*
X392962Y338066D01*
X392872Y338141D01*
X392784Y338217D01*
X392778Y338219D01*
X392773Y338223D01*
X392665Y338265D01*
X392555Y338309D01*
X392548Y338310D01*
X392543Y338311D01*
X392525Y338312D01*
X392389Y338327D01*
X154609Y338327D01*
X154519Y338313D01*
X154428Y338305D01*
X154399Y338293D01*
X154367Y338288D01*
X154286Y338245D01*
X154202Y338209D01*
X154170Y338183D01*
X154149Y338172D01*
X154127Y338149D01*
X154071Y338104D01*
X131796Y315829D01*
X131743Y315755D01*
X131683Y315685D01*
X131671Y315655D01*
X131652Y315629D01*
X131625Y315542D01*
X131591Y315457D01*
X131587Y315416D01*
X131580Y315394D01*
X131581Y315362D01*
X131573Y315291D01*
X131573Y290830D01*
X131576Y290810D01*
X131574Y290791D01*
X131596Y290689D01*
X131612Y290587D01*
X131622Y290570D01*
X131626Y290550D01*
X131679Y290461D01*
X131728Y290370D01*
X131742Y290356D01*
X131752Y290339D01*
X131831Y290272D01*
X131906Y290200D01*
X131924Y290192D01*
X131939Y290179D01*
X132035Y290140D01*
X132129Y290097D01*
X132149Y290095D01*
X132167Y290087D01*
X132334Y290069D01*
X138266Y290069D01*
X142187Y288445D01*
X145189Y285443D01*
X146813Y281522D01*
X146813Y277278D01*
X145189Y273357D01*
X142187Y270355D01*
X138266Y268731D01*
X115734Y268731D01*
G37*
%LPD*%
%LPC*%
G36*
X344334Y243331D02*
X344334Y243331D01*
X340413Y244955D01*
X337411Y247957D01*
X336997Y248957D01*
X336935Y249057D01*
X336875Y249157D01*
X336871Y249161D01*
X336867Y249166D01*
X336777Y249241D01*
X336689Y249317D01*
X336683Y249319D01*
X336678Y249323D01*
X336569Y249365D01*
X336460Y249409D01*
X336453Y249410D01*
X336448Y249411D01*
X336430Y249412D01*
X336294Y249427D01*
X328306Y249427D01*
X312927Y264806D01*
X312927Y306694D01*
X328306Y322073D01*
X493091Y322073D01*
X493181Y322087D01*
X493272Y322095D01*
X493301Y322107D01*
X493333Y322112D01*
X493414Y322155D01*
X493498Y322191D01*
X493530Y322217D01*
X493551Y322228D01*
X493573Y322251D01*
X493629Y322296D01*
X500715Y329382D01*
X500742Y329419D01*
X500775Y329450D01*
X500813Y329518D01*
X500858Y329581D01*
X500872Y329625D01*
X500894Y329665D01*
X500908Y329742D01*
X500931Y329816D01*
X500930Y329862D01*
X500938Y329908D01*
X500926Y329985D01*
X500924Y330062D01*
X500909Y330105D01*
X500902Y330151D01*
X500867Y330220D01*
X500840Y330293D01*
X500811Y330329D01*
X500790Y330370D01*
X500735Y330425D01*
X500686Y330485D01*
X500648Y330510D01*
X500615Y330542D01*
X500495Y330608D01*
X500479Y330618D01*
X500474Y330620D01*
X500468Y330623D01*
X499942Y330841D01*
X495941Y334842D01*
X493775Y340071D01*
X493775Y345729D01*
X495941Y350958D01*
X499942Y354959D01*
X505171Y357125D01*
X510829Y357125D01*
X516058Y354959D01*
X520059Y350958D01*
X522225Y345729D01*
X522225Y340071D01*
X520059Y334842D01*
X516058Y330841D01*
X513043Y329592D01*
X512943Y329530D01*
X512843Y329470D01*
X512839Y329466D01*
X512834Y329462D01*
X512759Y329372D01*
X512683Y329284D01*
X512681Y329278D01*
X512677Y329273D01*
X512635Y329165D01*
X512591Y329055D01*
X512590Y329048D01*
X512589Y329043D01*
X512588Y329025D01*
X512573Y328889D01*
X512573Y328306D01*
X497194Y312927D01*
X332409Y312927D01*
X332319Y312913D01*
X332228Y312905D01*
X332199Y312893D01*
X332167Y312888D01*
X332086Y312845D01*
X332002Y312809D01*
X331970Y312783D01*
X331949Y312772D01*
X331927Y312749D01*
X331871Y312704D01*
X322296Y303129D01*
X322243Y303055D01*
X322183Y302985D01*
X322171Y302955D01*
X322152Y302929D01*
X322125Y302842D01*
X322091Y302757D01*
X322087Y302716D01*
X322080Y302694D01*
X322081Y302662D01*
X322073Y302591D01*
X322073Y268909D01*
X322087Y268819D01*
X322095Y268728D01*
X322107Y268699D01*
X322112Y268667D01*
X322155Y268586D01*
X322191Y268502D01*
X322217Y268470D01*
X322228Y268449D01*
X322251Y268427D01*
X322296Y268371D01*
X331871Y258796D01*
X331945Y258743D01*
X332015Y258683D01*
X332045Y258671D01*
X332071Y258652D01*
X332158Y258625D01*
X332243Y258591D01*
X332284Y258587D01*
X332306Y258580D01*
X332338Y258581D01*
X332409Y258573D01*
X336294Y258573D01*
X336408Y258592D01*
X336525Y258609D01*
X336530Y258611D01*
X336536Y258612D01*
X336639Y258667D01*
X336744Y258720D01*
X336748Y258725D01*
X336754Y258728D01*
X336834Y258812D01*
X336916Y258896D01*
X336920Y258902D01*
X336923Y258906D01*
X336931Y258923D01*
X336997Y259043D01*
X337411Y260043D01*
X340413Y263045D01*
X344334Y264669D01*
X366866Y264669D01*
X370787Y263045D01*
X373789Y260043D01*
X375413Y256122D01*
X375413Y251878D01*
X373789Y247957D01*
X370787Y244955D01*
X366866Y243331D01*
X344334Y243331D01*
G37*
%LPD*%
%LPC*%
G36*
X537856Y204977D02*
X537856Y204977D01*
X520327Y222506D01*
X520327Y226394D01*
X520324Y226414D01*
X520326Y226433D01*
X520304Y226535D01*
X520288Y226637D01*
X520278Y226654D01*
X520274Y226674D01*
X520221Y226763D01*
X520172Y226854D01*
X520158Y226868D01*
X520148Y226885D01*
X520069Y226952D01*
X519994Y227024D01*
X519976Y227032D01*
X519961Y227045D01*
X519865Y227084D01*
X519771Y227127D01*
X519751Y227129D01*
X519733Y227137D01*
X519566Y227155D01*
X518768Y227155D01*
X517875Y228048D01*
X517875Y239312D01*
X518768Y240205D01*
X519566Y240205D01*
X519586Y240208D01*
X519605Y240206D01*
X519707Y240228D01*
X519809Y240244D01*
X519826Y240254D01*
X519846Y240258D01*
X519935Y240311D01*
X520026Y240360D01*
X520040Y240374D01*
X520057Y240384D01*
X520124Y240463D01*
X520196Y240538D01*
X520204Y240556D01*
X520217Y240571D01*
X520256Y240667D01*
X520299Y240761D01*
X520301Y240781D01*
X520309Y240799D01*
X520327Y240966D01*
X520327Y265462D01*
X520324Y265482D01*
X520326Y265501D01*
X520304Y265603D01*
X520288Y265705D01*
X520278Y265722D01*
X520274Y265742D01*
X520221Y265831D01*
X520172Y265922D01*
X520158Y265936D01*
X520148Y265953D01*
X520069Y266020D01*
X519994Y266092D01*
X519976Y266100D01*
X519961Y266113D01*
X519865Y266152D01*
X519771Y266195D01*
X519751Y266197D01*
X519733Y266205D01*
X519566Y266223D01*
X518477Y266223D01*
X514369Y267925D01*
X511225Y271069D01*
X509523Y275177D01*
X509523Y279623D01*
X511225Y283731D01*
X514369Y286875D01*
X515657Y287409D01*
X515757Y287471D01*
X515857Y287530D01*
X515861Y287535D01*
X515866Y287538D01*
X515941Y287629D01*
X516017Y287717D01*
X516019Y287723D01*
X516023Y287728D01*
X516065Y287836D01*
X516109Y287945D01*
X516110Y287953D01*
X516111Y287958D01*
X516112Y287976D01*
X516127Y288112D01*
X516127Y289891D01*
X516113Y289981D01*
X516105Y290072D01*
X516093Y290101D01*
X516088Y290133D01*
X516045Y290214D01*
X516009Y290298D01*
X515983Y290330D01*
X515972Y290351D01*
X515949Y290373D01*
X515904Y290429D01*
X506329Y300004D01*
X506255Y300057D01*
X506185Y300117D01*
X506155Y300129D01*
X506129Y300148D01*
X506042Y300175D01*
X505957Y300209D01*
X505916Y300213D01*
X505894Y300220D01*
X505862Y300219D01*
X505791Y300227D01*
X370509Y300227D01*
X370419Y300213D01*
X370328Y300205D01*
X370299Y300193D01*
X370267Y300188D01*
X370186Y300145D01*
X370102Y300109D01*
X370070Y300083D01*
X370049Y300072D01*
X370027Y300049D01*
X369971Y300004D01*
X361335Y291368D01*
X361293Y291310D01*
X361244Y291258D01*
X361222Y291211D01*
X361192Y291169D01*
X361170Y291100D01*
X361140Y291035D01*
X361135Y290983D01*
X361119Y290933D01*
X361121Y290862D01*
X361113Y290791D01*
X361124Y290740D01*
X361126Y290688D01*
X361150Y290620D01*
X361165Y290550D01*
X361192Y290505D01*
X361210Y290457D01*
X361255Y290401D01*
X361292Y290339D01*
X361331Y290305D01*
X361364Y290265D01*
X361424Y290226D01*
X361478Y290179D01*
X361527Y290160D01*
X361571Y290132D01*
X361640Y290114D01*
X361707Y290087D01*
X361778Y290079D01*
X361809Y290071D01*
X361832Y290073D01*
X361873Y290069D01*
X366866Y290069D01*
X370787Y288445D01*
X373789Y285443D01*
X375413Y281522D01*
X375413Y277278D01*
X373789Y273357D01*
X370787Y270355D01*
X366866Y268731D01*
X344334Y268731D01*
X340413Y270355D01*
X337411Y273357D01*
X335787Y277278D01*
X335787Y281522D01*
X337411Y285443D01*
X340413Y288445D01*
X344334Y290069D01*
X350266Y290069D01*
X350286Y290072D01*
X350305Y290070D01*
X350407Y290092D01*
X350509Y290108D01*
X350526Y290118D01*
X350546Y290122D01*
X350635Y290175D01*
X350726Y290224D01*
X350740Y290238D01*
X350757Y290248D01*
X350824Y290327D01*
X350896Y290402D01*
X350904Y290420D01*
X350917Y290435D01*
X350956Y290531D01*
X350999Y290625D01*
X351001Y290645D01*
X351009Y290663D01*
X351027Y290830D01*
X351027Y293994D01*
X366406Y309373D01*
X509894Y309373D01*
X525273Y293994D01*
X525273Y288112D01*
X525292Y287997D01*
X525309Y287881D01*
X525311Y287876D01*
X525312Y287869D01*
X525367Y287767D01*
X525420Y287662D01*
X525425Y287658D01*
X525428Y287652D01*
X525512Y287572D01*
X525596Y287490D01*
X525602Y287486D01*
X525606Y287483D01*
X525623Y287475D01*
X525743Y287409D01*
X527031Y286875D01*
X530175Y283731D01*
X531877Y279623D01*
X531877Y275177D01*
X530175Y271069D01*
X529696Y270589D01*
X529643Y270515D01*
X529583Y270446D01*
X529571Y270416D01*
X529552Y270390D01*
X529525Y270303D01*
X529491Y270218D01*
X529487Y270177D01*
X529480Y270155D01*
X529481Y270122D01*
X529473Y270051D01*
X529473Y240966D01*
X529476Y240946D01*
X529474Y240927D01*
X529496Y240825D01*
X529512Y240723D01*
X529522Y240706D01*
X529526Y240686D01*
X529579Y240597D01*
X529628Y240506D01*
X529642Y240492D01*
X529652Y240475D01*
X529731Y240408D01*
X529806Y240336D01*
X529824Y240328D01*
X529839Y240315D01*
X529935Y240276D01*
X530029Y240233D01*
X530049Y240231D01*
X530067Y240223D01*
X530234Y240205D01*
X531032Y240205D01*
X531925Y239312D01*
X531925Y228048D01*
X531032Y227155D01*
X530449Y227155D01*
X530379Y227144D01*
X530307Y227142D01*
X530258Y227124D01*
X530207Y227116D01*
X530143Y227082D01*
X530076Y227057D01*
X530035Y227025D01*
X529989Y227000D01*
X529940Y226948D01*
X529884Y226904D01*
X529856Y226860D01*
X529820Y226822D01*
X529790Y226757D01*
X529751Y226697D01*
X529738Y226646D01*
X529716Y226599D01*
X529708Y226528D01*
X529691Y226458D01*
X529695Y226406D01*
X529689Y226355D01*
X529704Y226284D01*
X529710Y226213D01*
X529730Y226165D01*
X529741Y226114D01*
X529778Y226053D01*
X529806Y225987D01*
X529851Y225931D01*
X529868Y225903D01*
X529885Y225888D01*
X529911Y225856D01*
X541421Y214346D01*
X541495Y214293D01*
X541565Y214233D01*
X541595Y214221D01*
X541621Y214202D01*
X541708Y214175D01*
X541793Y214141D01*
X541834Y214137D01*
X541856Y214130D01*
X541888Y214131D01*
X541959Y214123D01*
X561417Y214123D01*
X561491Y214093D01*
X561531Y214089D01*
X561554Y214082D01*
X561586Y214083D01*
X561657Y214075D01*
X571032Y214075D01*
X571925Y213182D01*
X571925Y205918D01*
X571032Y205025D01*
X561657Y205025D01*
X561567Y205011D01*
X561476Y205003D01*
X561446Y204991D01*
X561415Y204986D01*
X561399Y204977D01*
X537856Y204977D01*
G37*
%LPD*%
%LPC*%
G36*
X455306Y147827D02*
X455306Y147827D01*
X430129Y173004D01*
X430055Y173057D01*
X429985Y173117D01*
X429955Y173129D01*
X429929Y173148D01*
X429842Y173175D01*
X429757Y173209D01*
X429716Y173213D01*
X429694Y173220D01*
X429662Y173219D01*
X429591Y173227D01*
X374906Y173227D01*
X374792Y173208D01*
X374675Y173191D01*
X374670Y173189D01*
X374664Y173188D01*
X374561Y173133D01*
X374456Y173080D01*
X374452Y173075D01*
X374446Y173072D01*
X374366Y172988D01*
X374284Y172904D01*
X374280Y172898D01*
X374277Y172894D01*
X374269Y172877D01*
X374203Y172757D01*
X373789Y171757D01*
X370787Y168755D01*
X366866Y167131D01*
X344334Y167131D01*
X340413Y168755D01*
X337411Y171757D01*
X335787Y175678D01*
X335787Y179922D01*
X337411Y183843D01*
X340413Y186845D01*
X344334Y188469D01*
X366866Y188469D01*
X370787Y186845D01*
X373789Y183843D01*
X374203Y182843D01*
X374265Y182743D01*
X374325Y182643D01*
X374329Y182639D01*
X374333Y182634D01*
X374423Y182559D01*
X374511Y182483D01*
X374517Y182481D01*
X374522Y182477D01*
X374631Y182435D01*
X374740Y182391D01*
X374747Y182390D01*
X374752Y182389D01*
X374770Y182388D01*
X374906Y182373D01*
X433694Y182373D01*
X458871Y157196D01*
X458945Y157143D01*
X459015Y157083D01*
X459045Y157071D01*
X459071Y157052D01*
X459158Y157025D01*
X459243Y156991D01*
X459284Y156987D01*
X459306Y156980D01*
X459338Y156981D01*
X459409Y156973D01*
X518491Y156973D01*
X518581Y156987D01*
X518672Y156995D01*
X518701Y157007D01*
X518733Y157012D01*
X518814Y157055D01*
X518898Y157091D01*
X518930Y157117D01*
X518951Y157128D01*
X518973Y157151D01*
X519029Y157196D01*
X522254Y160421D01*
X522307Y160495D01*
X522367Y160565D01*
X522379Y160595D01*
X522398Y160621D01*
X522425Y160708D01*
X522459Y160793D01*
X522463Y160834D01*
X522470Y160856D01*
X522469Y160888D01*
X522477Y160959D01*
X522477Y202261D01*
X522463Y202351D01*
X522455Y202442D01*
X522443Y202471D01*
X522438Y202503D01*
X522395Y202584D01*
X522359Y202668D01*
X522333Y202700D01*
X522322Y202721D01*
X522299Y202743D01*
X522254Y202799D01*
X520299Y204754D01*
X520225Y204807D01*
X520155Y204867D01*
X520125Y204879D01*
X520099Y204898D01*
X520012Y204925D01*
X519927Y204959D01*
X519886Y204963D01*
X519864Y204970D01*
X519832Y204969D01*
X519761Y204977D01*
X505383Y204977D01*
X505309Y205007D01*
X505268Y205011D01*
X505246Y205018D01*
X505214Y205017D01*
X505143Y205025D01*
X495768Y205025D01*
X494875Y205918D01*
X494875Y213182D01*
X495768Y214075D01*
X505143Y214075D01*
X505233Y214089D01*
X505324Y214097D01*
X505353Y214109D01*
X505385Y214114D01*
X505401Y214123D01*
X523864Y214123D01*
X531623Y206364D01*
X531623Y156856D01*
X522594Y147827D01*
X455306Y147827D01*
G37*
%LPD*%
%LPC*%
G36*
X872658Y23139D02*
X872658Y23139D01*
X865623Y25024D01*
X859316Y28666D01*
X854166Y33816D01*
X850524Y40123D01*
X848639Y47158D01*
X848639Y54442D01*
X850524Y61477D01*
X854166Y67784D01*
X859316Y72934D01*
X865623Y76576D01*
X872658Y78461D01*
X879942Y78461D01*
X886977Y76576D01*
X893284Y72934D01*
X898434Y67784D01*
X902076Y61477D01*
X903961Y54442D01*
X903961Y47158D01*
X902076Y40123D01*
X898434Y33816D01*
X893284Y28666D01*
X886977Y25024D01*
X879942Y23139D01*
X872658Y23139D01*
G37*
%LPD*%
%LPC*%
G36*
X872658Y327939D02*
X872658Y327939D01*
X865623Y329824D01*
X859316Y333466D01*
X854166Y338616D01*
X850524Y344923D01*
X848639Y351958D01*
X848639Y359242D01*
X850524Y366277D01*
X854166Y372584D01*
X859316Y377734D01*
X865623Y381376D01*
X872658Y383261D01*
X879942Y383261D01*
X886977Y381376D01*
X893284Y377734D01*
X898434Y372584D01*
X902076Y366277D01*
X903961Y359242D01*
X903961Y351958D01*
X902076Y344923D01*
X898434Y338616D01*
X893284Y333466D01*
X886977Y329824D01*
X879942Y327939D01*
X872658Y327939D01*
G37*
%LPD*%
%LPC*%
G36*
X47158Y23139D02*
X47158Y23139D01*
X40123Y25024D01*
X33816Y28666D01*
X28666Y33816D01*
X25024Y40123D01*
X23139Y47158D01*
X23139Y54442D01*
X25024Y61477D01*
X28666Y67784D01*
X33816Y72934D01*
X40123Y76576D01*
X47158Y78461D01*
X54442Y78461D01*
X61477Y76576D01*
X67784Y72934D01*
X72934Y67784D01*
X76576Y61477D01*
X78461Y54442D01*
X78461Y47158D01*
X76576Y40123D01*
X72934Y33816D01*
X67784Y28666D01*
X61477Y25024D01*
X54442Y23139D01*
X47158Y23139D01*
G37*
%LPD*%
%LPC*%
G36*
X47158Y327939D02*
X47158Y327939D01*
X40123Y329824D01*
X33816Y333466D01*
X28666Y338616D01*
X25024Y344923D01*
X23139Y351958D01*
X23139Y359242D01*
X25024Y366277D01*
X28666Y372584D01*
X33816Y377734D01*
X40123Y381376D01*
X47158Y383261D01*
X54442Y383261D01*
X61477Y381376D01*
X67784Y377734D01*
X72934Y372584D01*
X76576Y366277D01*
X78461Y359242D01*
X78461Y351958D01*
X76576Y344923D01*
X72934Y338616D01*
X67784Y333466D01*
X61477Y329824D01*
X54442Y327939D01*
X47158Y327939D01*
G37*
%LPD*%
%LPC*%
G36*
X557383Y192277D02*
X557383Y192277D01*
X557309Y192307D01*
X557268Y192311D01*
X557246Y192318D01*
X557214Y192317D01*
X557143Y192325D01*
X547768Y192325D01*
X546875Y193218D01*
X546875Y200482D01*
X547768Y201375D01*
X557143Y201375D01*
X557233Y201389D01*
X557324Y201397D01*
X557353Y201409D01*
X557385Y201414D01*
X557401Y201423D01*
X588341Y201423D01*
X588431Y201437D01*
X588522Y201445D01*
X588551Y201457D01*
X588583Y201462D01*
X588664Y201505D01*
X588748Y201541D01*
X588780Y201567D01*
X588801Y201578D01*
X588823Y201601D01*
X588879Y201646D01*
X604804Y217571D01*
X604857Y217645D01*
X604917Y217715D01*
X604929Y217745D01*
X604948Y217771D01*
X604975Y217858D01*
X605009Y217943D01*
X605013Y217984D01*
X605020Y218006D01*
X605019Y218038D01*
X605027Y218109D01*
X605027Y328889D01*
X605009Y329003D01*
X604991Y329120D01*
X604989Y329125D01*
X604988Y329131D01*
X604933Y329234D01*
X604880Y329339D01*
X604875Y329343D01*
X604872Y329349D01*
X604788Y329429D01*
X604704Y329511D01*
X604698Y329515D01*
X604694Y329518D01*
X604677Y329526D01*
X604557Y329592D01*
X601542Y330841D01*
X597541Y334842D01*
X595375Y340071D01*
X595375Y345729D01*
X597541Y350958D01*
X601542Y354959D01*
X606771Y357125D01*
X612429Y357125D01*
X617658Y354959D01*
X621659Y350958D01*
X623825Y345729D01*
X623825Y340071D01*
X621659Y334842D01*
X617658Y330841D01*
X614643Y329592D01*
X614543Y329530D01*
X614443Y329470D01*
X614439Y329466D01*
X614434Y329462D01*
X614359Y329372D01*
X614283Y329284D01*
X614281Y329278D01*
X614277Y329273D01*
X614235Y329165D01*
X614191Y329055D01*
X614190Y329048D01*
X614189Y329043D01*
X614188Y329025D01*
X614173Y328889D01*
X614173Y214006D01*
X592444Y192277D01*
X557383Y192277D01*
G37*
%LPD*%
%LPC*%
G36*
X461656Y192277D02*
X461656Y192277D01*
X430129Y223804D01*
X430055Y223857D01*
X429985Y223917D01*
X429955Y223929D01*
X429929Y223948D01*
X429842Y223975D01*
X429757Y224009D01*
X429716Y224013D01*
X429694Y224020D01*
X429662Y224019D01*
X429591Y224027D01*
X374906Y224027D01*
X374792Y224008D01*
X374675Y223991D01*
X374670Y223989D01*
X374664Y223988D01*
X374561Y223933D01*
X374456Y223880D01*
X374452Y223875D01*
X374446Y223872D01*
X374366Y223788D01*
X374284Y223704D01*
X374280Y223698D01*
X374277Y223694D01*
X374269Y223677D01*
X374203Y223557D01*
X373789Y222557D01*
X370787Y219555D01*
X366866Y217931D01*
X344334Y217931D01*
X340413Y219555D01*
X337411Y222557D01*
X335787Y226478D01*
X335787Y230722D01*
X337411Y234643D01*
X340413Y237645D01*
X344334Y239269D01*
X366866Y239269D01*
X370787Y237645D01*
X373789Y234643D01*
X374203Y233643D01*
X374265Y233543D01*
X374325Y233443D01*
X374329Y233439D01*
X374333Y233434D01*
X374423Y233359D01*
X374511Y233283D01*
X374517Y233281D01*
X374522Y233277D01*
X374631Y233235D01*
X374740Y233191D01*
X374747Y233190D01*
X374752Y233189D01*
X374770Y233188D01*
X374906Y233173D01*
X433694Y233173D01*
X465221Y201646D01*
X465295Y201593D01*
X465365Y201533D01*
X465395Y201521D01*
X465421Y201502D01*
X465508Y201475D01*
X465593Y201441D01*
X465634Y201437D01*
X465656Y201430D01*
X465688Y201431D01*
X465759Y201423D01*
X509417Y201423D01*
X509491Y201393D01*
X509531Y201389D01*
X509554Y201382D01*
X509586Y201383D01*
X509657Y201375D01*
X519032Y201375D01*
X519925Y200482D01*
X519925Y193218D01*
X519032Y192325D01*
X509657Y192325D01*
X509567Y192311D01*
X509476Y192303D01*
X509446Y192291D01*
X509415Y192286D01*
X509399Y192277D01*
X461656Y192277D01*
G37*
%LPD*%
%LPC*%
G36*
X448956Y179577D02*
X448956Y179577D01*
X430129Y198404D01*
X430055Y198457D01*
X429985Y198517D01*
X429955Y198529D01*
X429929Y198548D01*
X429842Y198575D01*
X429757Y198609D01*
X429716Y198613D01*
X429694Y198620D01*
X429662Y198619D01*
X429591Y198627D01*
X374906Y198627D01*
X374792Y198608D01*
X374675Y198591D01*
X374670Y198589D01*
X374664Y198588D01*
X374561Y198533D01*
X374456Y198480D01*
X374452Y198475D01*
X374446Y198472D01*
X374366Y198388D01*
X374284Y198304D01*
X374280Y198298D01*
X374277Y198294D01*
X374269Y198277D01*
X374203Y198157D01*
X373789Y197157D01*
X370787Y194155D01*
X366866Y192531D01*
X344334Y192531D01*
X340413Y194155D01*
X337411Y197157D01*
X335787Y201078D01*
X335787Y205322D01*
X337411Y209243D01*
X340413Y212245D01*
X344334Y213869D01*
X366866Y213869D01*
X370787Y212245D01*
X373789Y209243D01*
X374203Y208243D01*
X374265Y208143D01*
X374325Y208043D01*
X374329Y208039D01*
X374333Y208034D01*
X374423Y207959D01*
X374511Y207883D01*
X374517Y207881D01*
X374522Y207877D01*
X374631Y207835D01*
X374740Y207791D01*
X374747Y207790D01*
X374752Y207789D01*
X374770Y207788D01*
X374906Y207773D01*
X433694Y207773D01*
X452521Y188946D01*
X452595Y188893D01*
X452665Y188833D01*
X452695Y188821D01*
X452721Y188802D01*
X452808Y188775D01*
X452893Y188741D01*
X452934Y188737D01*
X452956Y188730D01*
X452988Y188731D01*
X453059Y188723D01*
X509417Y188723D01*
X509491Y188693D01*
X509531Y188689D01*
X509554Y188682D01*
X509586Y188683D01*
X509657Y188675D01*
X519032Y188675D01*
X519925Y187782D01*
X519925Y180518D01*
X519032Y179625D01*
X509657Y179625D01*
X509567Y179611D01*
X509476Y179603D01*
X509446Y179591D01*
X509415Y179586D01*
X509399Y179577D01*
X448956Y179577D01*
G37*
%LPD*%
%LPC*%
G36*
X411691Y251239D02*
X411691Y251239D01*
X403913Y254461D01*
X397961Y260413D01*
X394739Y268191D01*
X394739Y276609D01*
X397961Y284387D01*
X403913Y290339D01*
X411691Y293561D01*
X420109Y293561D01*
X427887Y290339D01*
X433839Y284387D01*
X437061Y276609D01*
X437061Y268191D01*
X433839Y260413D01*
X427887Y254461D01*
X420109Y251239D01*
X411691Y251239D01*
G37*
%LPD*%
%LPC*%
G36*
X646691Y251239D02*
X646691Y251239D01*
X638913Y254461D01*
X632961Y260413D01*
X629739Y268191D01*
X629739Y276609D01*
X632961Y284387D01*
X638913Y290339D01*
X646691Y293561D01*
X655109Y293561D01*
X662887Y290339D01*
X668839Y284387D01*
X672061Y276609D01*
X672061Y268191D01*
X668839Y260413D01*
X662887Y254461D01*
X655109Y251239D01*
X646691Y251239D01*
G37*
%LPD*%
%LPC*%
G36*
X747868Y183475D02*
X747868Y183475D01*
X746975Y184368D01*
X746975Y185166D01*
X746972Y185186D01*
X746974Y185205D01*
X746952Y185307D01*
X746936Y185409D01*
X746926Y185426D01*
X746922Y185446D01*
X746869Y185535D01*
X746820Y185626D01*
X746806Y185640D01*
X746796Y185657D01*
X746717Y185724D01*
X746642Y185796D01*
X746624Y185804D01*
X746609Y185817D01*
X746513Y185856D01*
X746419Y185899D01*
X746399Y185901D01*
X746381Y185909D01*
X746214Y185927D01*
X742326Y185927D01*
X729487Y198766D01*
X729487Y229213D01*
X729468Y229328D01*
X729451Y229444D01*
X729449Y229450D01*
X729448Y229456D01*
X729393Y229559D01*
X729340Y229663D01*
X729335Y229668D01*
X729332Y229673D01*
X729248Y229753D01*
X729164Y229836D01*
X729158Y229839D01*
X729154Y229843D01*
X729137Y229851D01*
X729017Y229917D01*
X727009Y230748D01*
X723508Y234249D01*
X721613Y238824D01*
X721613Y243776D01*
X723508Y248351D01*
X727009Y251852D01*
X731584Y253747D01*
X736536Y253747D01*
X741111Y251852D01*
X744612Y248351D01*
X746507Y243776D01*
X746507Y238824D01*
X744612Y234249D01*
X741111Y230748D01*
X739103Y229917D01*
X739003Y229855D01*
X738903Y229795D01*
X738899Y229790D01*
X738894Y229787D01*
X738819Y229696D01*
X738743Y229608D01*
X738741Y229602D01*
X738737Y229597D01*
X738695Y229489D01*
X738651Y229380D01*
X738650Y229372D01*
X738649Y229368D01*
X738648Y229350D01*
X738633Y229213D01*
X738633Y202869D01*
X738648Y202779D01*
X738655Y202688D01*
X738667Y202659D01*
X738672Y202627D01*
X738715Y202546D01*
X738751Y202462D01*
X738777Y202430D01*
X738788Y202409D01*
X738811Y202387D01*
X738856Y202331D01*
X745676Y195511D01*
X745734Y195469D01*
X745786Y195420D01*
X745833Y195398D01*
X745875Y195368D01*
X745944Y195346D01*
X746009Y195316D01*
X746061Y195311D01*
X746111Y195295D01*
X746182Y195297D01*
X746253Y195289D01*
X746304Y195300D01*
X746356Y195302D01*
X746424Y195326D01*
X746494Y195341D01*
X746539Y195368D01*
X746587Y195386D01*
X746643Y195431D01*
X746705Y195468D01*
X746739Y195507D01*
X746779Y195540D01*
X746818Y195600D01*
X746865Y195654D01*
X746884Y195703D01*
X746912Y195747D01*
X746930Y195816D01*
X746957Y195883D01*
X746965Y195954D01*
X746973Y195985D01*
X746971Y196008D01*
X746975Y196049D01*
X746975Y196632D01*
X747868Y197525D01*
X759132Y197525D01*
X760025Y196632D01*
X760025Y184368D01*
X759132Y183475D01*
X747868Y183475D01*
G37*
%LPD*%
%LPC*%
G36*
X115734Y192531D02*
X115734Y192531D01*
X111813Y194155D01*
X108811Y197157D01*
X107187Y201078D01*
X107187Y205322D01*
X108811Y209243D01*
X111813Y212245D01*
X115734Y213869D01*
X138266Y213869D01*
X142187Y212245D01*
X145189Y209243D01*
X146813Y205322D01*
X146813Y201078D01*
X145189Y197157D01*
X142187Y194155D01*
X138266Y192531D01*
X115734Y192531D01*
G37*
%LPD*%
%LPC*%
G36*
X115734Y167131D02*
X115734Y167131D01*
X111813Y168755D01*
X108811Y171757D01*
X107187Y175678D01*
X107187Y179922D01*
X108811Y183843D01*
X111813Y186845D01*
X115734Y188469D01*
X138266Y188469D01*
X142187Y186845D01*
X145189Y183843D01*
X146813Y179922D01*
X146813Y175678D01*
X145189Y171757D01*
X142187Y168755D01*
X138266Y167131D01*
X115734Y167131D01*
G37*
%LPD*%
%LPC*%
G36*
X115734Y141731D02*
X115734Y141731D01*
X111813Y143355D01*
X108811Y146357D01*
X107187Y150278D01*
X107187Y154522D01*
X108811Y158443D01*
X111813Y161445D01*
X115734Y163069D01*
X138266Y163069D01*
X142187Y161445D01*
X145189Y158443D01*
X146813Y154522D01*
X146813Y150278D01*
X145189Y146357D01*
X142187Y143355D01*
X138266Y141731D01*
X115734Y141731D01*
G37*
%LPD*%
%LPC*%
G36*
X115734Y116331D02*
X115734Y116331D01*
X111813Y117955D01*
X108811Y120957D01*
X107187Y124878D01*
X107187Y129122D01*
X108811Y133043D01*
X111813Y136045D01*
X115734Y137669D01*
X138266Y137669D01*
X142187Y136045D01*
X145189Y133043D01*
X146813Y129122D01*
X146813Y124878D01*
X145189Y120957D01*
X142187Y117955D01*
X138266Y116331D01*
X115734Y116331D01*
G37*
%LPD*%
%LPC*%
G36*
X344334Y116331D02*
X344334Y116331D01*
X340413Y117955D01*
X337411Y120957D01*
X335787Y124878D01*
X335787Y129122D01*
X337411Y133043D01*
X340413Y136045D01*
X344334Y137669D01*
X366866Y137669D01*
X370787Y136045D01*
X373789Y133043D01*
X375413Y129122D01*
X375413Y124878D01*
X373789Y120957D01*
X370787Y117955D01*
X366866Y116331D01*
X344334Y116331D01*
G37*
%LPD*%
%LPC*%
G36*
X344334Y141731D02*
X344334Y141731D01*
X340413Y143355D01*
X337411Y146357D01*
X335787Y150278D01*
X335787Y154522D01*
X337411Y158443D01*
X340413Y161445D01*
X344334Y163069D01*
X366866Y163069D01*
X370787Y161445D01*
X373789Y158443D01*
X375413Y154522D01*
X375413Y150278D01*
X373789Y146357D01*
X370787Y143355D01*
X366866Y141731D01*
X344334Y141731D01*
G37*
%LPD*%
%LPC*%
G36*
X115734Y90931D02*
X115734Y90931D01*
X111813Y92555D01*
X108811Y95557D01*
X107187Y99478D01*
X107187Y103722D01*
X108811Y107643D01*
X111813Y110645D01*
X115734Y112269D01*
X138266Y112269D01*
X142187Y110645D01*
X145189Y107643D01*
X146813Y103722D01*
X146813Y99478D01*
X145189Y95557D01*
X142187Y92555D01*
X138266Y90931D01*
X115734Y90931D01*
G37*
%LPD*%
%LPC*%
G36*
X344334Y90931D02*
X344334Y90931D01*
X340413Y92555D01*
X337411Y95557D01*
X335787Y99478D01*
X335787Y103722D01*
X337411Y107643D01*
X340413Y110645D01*
X344334Y112269D01*
X366866Y112269D01*
X370787Y110645D01*
X373789Y107643D01*
X375413Y103722D01*
X375413Y99478D01*
X373789Y95557D01*
X370787Y92555D01*
X366866Y90931D01*
X344334Y90931D01*
G37*
%LPD*%
%LPC*%
G36*
X759524Y228853D02*
X759524Y228853D01*
X754949Y230748D01*
X751448Y234249D01*
X749553Y238824D01*
X749553Y243776D01*
X751448Y248351D01*
X754949Y251852D01*
X759524Y253747D01*
X764476Y253747D01*
X769051Y251852D01*
X772552Y248351D01*
X774447Y243776D01*
X774447Y238824D01*
X772552Y234249D01*
X769051Y230748D01*
X764476Y228853D01*
X759524Y228853D01*
G37*
%LPD*%
%LPC*%
G36*
X822049Y51580D02*
X822049Y51580D01*
X817521Y53456D01*
X814056Y56921D01*
X812180Y61449D01*
X812180Y66351D01*
X814056Y70879D01*
X817521Y74344D01*
X822049Y76220D01*
X826951Y76220D01*
X831479Y74344D01*
X834944Y70879D01*
X836820Y66351D01*
X836820Y61449D01*
X834944Y56921D01*
X831479Y53456D01*
X826951Y51580D01*
X822049Y51580D01*
G37*
%LPD*%
%LPC*%
G36*
X822049Y101580D02*
X822049Y101580D01*
X817521Y103456D01*
X814056Y106921D01*
X812180Y111449D01*
X812180Y116351D01*
X814056Y120879D01*
X817521Y124344D01*
X822049Y126220D01*
X826951Y126220D01*
X831479Y124344D01*
X834944Y120879D01*
X836820Y116351D01*
X836820Y111449D01*
X834944Y106921D01*
X831479Y103456D01*
X826951Y101580D01*
X822049Y101580D01*
G37*
%LPD*%
%LPC*%
G36*
X569277Y266223D02*
X569277Y266223D01*
X565169Y267925D01*
X562025Y271069D01*
X560323Y275177D01*
X560323Y279623D01*
X562025Y283731D01*
X565169Y286875D01*
X569277Y288577D01*
X573723Y288577D01*
X577831Y286875D01*
X580975Y283731D01*
X582677Y279623D01*
X582677Y275177D01*
X580975Y271069D01*
X577831Y267925D01*
X573723Y266223D01*
X569277Y266223D01*
G37*
%LPD*%
%LPC*%
G36*
X543877Y266223D02*
X543877Y266223D01*
X539769Y267925D01*
X536625Y271069D01*
X534923Y275177D01*
X534923Y279623D01*
X536625Y283731D01*
X539769Y286875D01*
X543877Y288577D01*
X548323Y288577D01*
X552431Y286875D01*
X555575Y283731D01*
X557277Y279623D01*
X557277Y275177D01*
X555575Y271069D01*
X552431Y267925D01*
X548323Y266223D01*
X543877Y266223D01*
G37*
%LPD*%
%LPC*%
G36*
X713523Y311323D02*
X713523Y311323D01*
X713523Y331376D01*
X716221Y331021D01*
X718955Y330289D01*
X721570Y329206D01*
X724021Y327791D01*
X726266Y326068D01*
X728268Y324066D01*
X729991Y321821D01*
X731406Y319370D01*
X732489Y316755D01*
X733221Y314021D01*
X733576Y311323D01*
X713523Y311323D01*
G37*
%LPD*%
%LPC*%
G36*
X813523Y311323D02*
X813523Y311323D01*
X813523Y331376D01*
X816221Y331021D01*
X818955Y330289D01*
X821570Y329206D01*
X824021Y327791D01*
X826266Y326068D01*
X828268Y324066D01*
X829991Y321821D01*
X831406Y319370D01*
X832489Y316755D01*
X833221Y314021D01*
X833576Y311323D01*
X813523Y311323D01*
G37*
%LPD*%
%LPC*%
G36*
X790424Y311323D02*
X790424Y311323D01*
X790779Y314021D01*
X791511Y316755D01*
X792594Y319370D01*
X794009Y321821D01*
X795732Y324066D01*
X797734Y326068D01*
X799979Y327791D01*
X802430Y329206D01*
X805045Y330289D01*
X807779Y331021D01*
X810477Y331376D01*
X810477Y311323D01*
X790424Y311323D01*
G37*
%LPD*%
%LPC*%
G36*
X813523Y308277D02*
X813523Y308277D01*
X833576Y308277D01*
X833221Y305579D01*
X832489Y302845D01*
X831406Y300230D01*
X829991Y297779D01*
X828268Y295534D01*
X826266Y293532D01*
X824021Y291809D01*
X821570Y290394D01*
X818955Y289311D01*
X816221Y288579D01*
X813523Y288224D01*
X813523Y308277D01*
G37*
%LPD*%
%LPC*%
G36*
X690424Y311323D02*
X690424Y311323D01*
X690779Y314021D01*
X691511Y316755D01*
X692594Y319370D01*
X694009Y321821D01*
X695732Y324066D01*
X697734Y326068D01*
X699979Y327791D01*
X702430Y329206D01*
X705045Y330289D01*
X707779Y331021D01*
X710477Y331376D01*
X710477Y311323D01*
X690424Y311323D01*
G37*
%LPD*%
%LPC*%
G36*
X713523Y308277D02*
X713523Y308277D01*
X733576Y308277D01*
X733221Y305579D01*
X732489Y302845D01*
X731406Y300230D01*
X729991Y297779D01*
X728268Y295534D01*
X726266Y293532D01*
X724021Y291809D01*
X721570Y290394D01*
X718955Y289311D01*
X716221Y288579D01*
X713523Y288224D01*
X713523Y308277D01*
G37*
%LPD*%
%LPC*%
G36*
X807779Y288579D02*
X807779Y288579D01*
X805045Y289311D01*
X802430Y290394D01*
X799979Y291809D01*
X797734Y293532D01*
X795732Y295534D01*
X794009Y297779D01*
X792594Y300230D01*
X791511Y302845D01*
X790779Y305579D01*
X790424Y308277D01*
X810477Y308277D01*
X810477Y288224D01*
X807779Y288579D01*
G37*
%LPD*%
%LPC*%
G36*
X707779Y288579D02*
X707779Y288579D01*
X705045Y289311D01*
X702430Y290394D01*
X699979Y291809D01*
X697734Y293532D01*
X695732Y295534D01*
X694009Y297779D01*
X692594Y300230D01*
X691511Y302845D01*
X690779Y305579D01*
X690424Y308277D01*
X710477Y308277D01*
X710477Y288224D01*
X707779Y288579D01*
G37*
%LPD*%
%LPC*%
G36*
X495768Y166925D02*
X495768Y166925D01*
X494875Y167818D01*
X494875Y175082D01*
X495768Y175975D01*
X519032Y175975D01*
X519925Y175082D01*
X519925Y167818D01*
X519032Y166925D01*
X495768Y166925D01*
G37*
%LPD*%
%LPC*%
G36*
X128523Y255523D02*
X128523Y255523D01*
X128523Y265685D01*
X137064Y265685D01*
X138880Y265397D01*
X140629Y264829D01*
X142268Y263994D01*
X143756Y262913D01*
X145057Y261612D01*
X146138Y260124D01*
X146973Y258485D01*
X147541Y256736D01*
X147733Y255523D01*
X128523Y255523D01*
G37*
%LPD*%
%LPC*%
G36*
X106267Y255523D02*
X106267Y255523D01*
X106459Y256736D01*
X107027Y258485D01*
X107862Y260124D01*
X108943Y261612D01*
X110244Y262913D01*
X111732Y263994D01*
X113371Y264829D01*
X115120Y265397D01*
X116936Y265685D01*
X125477Y265685D01*
X125477Y255523D01*
X106267Y255523D01*
G37*
%LPD*%
%LPC*%
G36*
X128523Y242315D02*
X128523Y242315D01*
X128523Y252477D01*
X147733Y252477D01*
X147541Y251264D01*
X146973Y249515D01*
X146138Y247876D01*
X145057Y246388D01*
X143756Y245087D01*
X142268Y244006D01*
X140629Y243171D01*
X138880Y242603D01*
X137064Y242315D01*
X128523Y242315D01*
G37*
%LPD*%
%LPC*%
G36*
X116936Y242315D02*
X116936Y242315D01*
X115120Y242603D01*
X113371Y243171D01*
X111732Y244006D01*
X110244Y245087D01*
X108943Y246388D01*
X107862Y247876D01*
X107027Y249515D01*
X106459Y251264D01*
X106267Y252477D01*
X125477Y252477D01*
X125477Y242315D01*
X116936Y242315D01*
G37*
%LPD*%
%LPC*%
G36*
X458723Y344423D02*
X458723Y344423D01*
X458723Y358089D01*
X460769Y357765D01*
X463050Y357024D01*
X465188Y355935D01*
X467129Y354525D01*
X468825Y352829D01*
X470235Y350888D01*
X471324Y348750D01*
X472065Y346469D01*
X472389Y344423D01*
X458723Y344423D01*
G37*
%LPD*%
%LPC*%
G36*
X560323Y344423D02*
X560323Y344423D01*
X560323Y358089D01*
X562369Y357765D01*
X564650Y357024D01*
X566788Y355935D01*
X568729Y354525D01*
X570425Y352829D01*
X571835Y350888D01*
X572924Y348750D01*
X573665Y346469D01*
X573989Y344423D01*
X560323Y344423D01*
G37*
%LPD*%
%LPC*%
G36*
X661923Y344423D02*
X661923Y344423D01*
X661923Y358089D01*
X663969Y357765D01*
X666250Y357024D01*
X668388Y355935D01*
X670329Y354525D01*
X672025Y352829D01*
X673435Y350888D01*
X674524Y348750D01*
X675265Y346469D01*
X675589Y344423D01*
X661923Y344423D01*
G37*
%LPD*%
%LPC*%
G36*
X442011Y344423D02*
X442011Y344423D01*
X442335Y346469D01*
X443076Y348750D01*
X444165Y350888D01*
X445575Y352829D01*
X447271Y354525D01*
X449212Y355935D01*
X451350Y357024D01*
X453631Y357765D01*
X455677Y358089D01*
X455677Y344423D01*
X442011Y344423D01*
G37*
%LPD*%
%LPC*%
G36*
X560323Y341377D02*
X560323Y341377D01*
X573989Y341377D01*
X573665Y339331D01*
X572924Y337050D01*
X571835Y334912D01*
X570425Y332971D01*
X568729Y331275D01*
X566788Y329865D01*
X564650Y328776D01*
X562369Y328035D01*
X560323Y327711D01*
X560323Y341377D01*
G37*
%LPD*%
%LPC*%
G36*
X661923Y341377D02*
X661923Y341377D01*
X675589Y341377D01*
X675265Y339331D01*
X674524Y337050D01*
X673435Y334912D01*
X672025Y332971D01*
X670329Y331275D01*
X668388Y329865D01*
X666250Y328776D01*
X663969Y328035D01*
X661923Y327711D01*
X661923Y341377D01*
G37*
%LPD*%
%LPC*%
G36*
X543611Y344423D02*
X543611Y344423D01*
X543935Y346469D01*
X544676Y348750D01*
X545765Y350888D01*
X547175Y352829D01*
X548871Y354525D01*
X550812Y355935D01*
X552950Y357024D01*
X555231Y357765D01*
X557277Y358089D01*
X557277Y344423D01*
X543611Y344423D01*
G37*
%LPD*%
%LPC*%
G36*
X458723Y341377D02*
X458723Y341377D01*
X472389Y341377D01*
X472065Y339331D01*
X471324Y337050D01*
X470235Y334912D01*
X468825Y332971D01*
X467129Y331275D01*
X465188Y329865D01*
X463050Y328776D01*
X460769Y328035D01*
X458723Y327711D01*
X458723Y341377D01*
G37*
%LPD*%
%LPC*%
G36*
X645211Y344423D02*
X645211Y344423D01*
X645535Y346469D01*
X646276Y348750D01*
X647365Y350888D01*
X648775Y352829D01*
X650471Y354525D01*
X652412Y355935D01*
X654550Y357024D01*
X656831Y357765D01*
X658877Y358089D01*
X658877Y344423D01*
X645211Y344423D01*
G37*
%LPD*%
%LPC*%
G36*
X555231Y328035D02*
X555231Y328035D01*
X552950Y328776D01*
X550812Y329865D01*
X548871Y331275D01*
X547175Y332971D01*
X545765Y334912D01*
X544676Y337050D01*
X543935Y339331D01*
X543611Y341377D01*
X557277Y341377D01*
X557277Y327711D01*
X555231Y328035D01*
G37*
%LPD*%
%LPC*%
G36*
X453631Y328035D02*
X453631Y328035D01*
X451350Y328776D01*
X449212Y329865D01*
X447271Y331275D01*
X445575Y332971D01*
X444165Y334912D01*
X443076Y337050D01*
X442335Y339331D01*
X442011Y341377D01*
X455677Y341377D01*
X455677Y327711D01*
X453631Y328035D01*
G37*
%LPD*%
%LPC*%
G36*
X656831Y328035D02*
X656831Y328035D01*
X654550Y328776D01*
X652412Y329865D01*
X650471Y331275D01*
X648775Y332971D01*
X647365Y334912D01*
X646276Y337050D01*
X645535Y339331D01*
X645211Y341377D01*
X658877Y341377D01*
X658877Y327711D01*
X656831Y328035D01*
G37*
%LPD*%
%LPC*%
G36*
X791463Y242823D02*
X791463Y242823D01*
X791463Y254689D01*
X793092Y254431D01*
X795108Y253776D01*
X796996Y252814D01*
X798710Y251569D01*
X800209Y250070D01*
X801454Y248356D01*
X802416Y246468D01*
X803071Y244452D01*
X803329Y242823D01*
X791463Y242823D01*
G37*
%LPD*%
%LPC*%
G36*
X791463Y239777D02*
X791463Y239777D01*
X803329Y239777D01*
X803071Y238148D01*
X802416Y236132D01*
X801454Y234244D01*
X800209Y232530D01*
X798710Y231031D01*
X796996Y229786D01*
X795108Y228824D01*
X793092Y228169D01*
X791463Y227911D01*
X791463Y239777D01*
G37*
%LPD*%
%LPC*%
G36*
X776551Y242823D02*
X776551Y242823D01*
X776809Y244452D01*
X777464Y246468D01*
X778426Y248356D01*
X779671Y250070D01*
X781170Y251569D01*
X782884Y252814D01*
X784772Y253776D01*
X786788Y254431D01*
X788417Y254689D01*
X788417Y242823D01*
X776551Y242823D01*
G37*
%LPD*%
%LPC*%
G36*
X786788Y228169D02*
X786788Y228169D01*
X784772Y228824D01*
X782884Y229786D01*
X781170Y231031D01*
X779671Y232530D01*
X778426Y234244D01*
X777464Y236132D01*
X776809Y238148D01*
X776551Y239777D01*
X788417Y239777D01*
X788417Y227911D01*
X786788Y228169D01*
G37*
%LPD*%
%LPC*%
G36*
X701023Y115423D02*
X701023Y115423D01*
X701023Y127161D01*
X702623Y126907D01*
X704619Y126259D01*
X706489Y125306D01*
X708188Y124072D01*
X709672Y122588D01*
X710906Y120889D01*
X711859Y119019D01*
X712507Y117023D01*
X712761Y115423D01*
X701023Y115423D01*
G37*
%LPD*%
%LPC*%
G36*
X686239Y115423D02*
X686239Y115423D01*
X686493Y117023D01*
X687141Y119019D01*
X688094Y120889D01*
X689328Y122588D01*
X690812Y124072D01*
X692511Y125306D01*
X694381Y126259D01*
X696377Y126907D01*
X697977Y127161D01*
X697977Y115423D01*
X686239Y115423D01*
G37*
%LPD*%
%LPC*%
G36*
X701023Y112377D02*
X701023Y112377D01*
X712761Y112377D01*
X712507Y110777D01*
X711859Y108781D01*
X710906Y106911D01*
X709672Y105212D01*
X708188Y103728D01*
X706489Y102494D01*
X704619Y101541D01*
X702623Y100893D01*
X701023Y100639D01*
X701023Y112377D01*
G37*
%LPD*%
%LPC*%
G36*
X696377Y100893D02*
X696377Y100893D01*
X694381Y101541D01*
X692511Y102494D01*
X690812Y103728D01*
X689328Y105212D01*
X688094Y106911D01*
X687141Y108781D01*
X686493Y110777D01*
X686239Y112377D01*
X697977Y112377D01*
X697977Y100639D01*
X696377Y100893D01*
G37*
%LPD*%
%LPC*%
G36*
X496823Y278923D02*
X496823Y278923D01*
X496823Y289503D01*
X498155Y289293D01*
X499980Y288699D01*
X501690Y287828D01*
X503243Y286700D01*
X504600Y285343D01*
X505728Y283790D01*
X506599Y282080D01*
X507193Y280255D01*
X507403Y278923D01*
X496823Y278923D01*
G37*
%LPD*%
%LPC*%
G36*
X496823Y275877D02*
X496823Y275877D01*
X507403Y275877D01*
X507193Y274545D01*
X506599Y272720D01*
X505728Y271010D01*
X504600Y269457D01*
X503243Y268100D01*
X501690Y266972D01*
X499980Y266101D01*
X498155Y265507D01*
X496823Y265297D01*
X496823Y275877D01*
G37*
%LPD*%
%LPC*%
G36*
X483197Y278923D02*
X483197Y278923D01*
X483407Y280255D01*
X484001Y282080D01*
X484872Y283790D01*
X486000Y285343D01*
X487357Y286700D01*
X488910Y287828D01*
X490620Y288699D01*
X492445Y289293D01*
X493777Y289503D01*
X493777Y278923D01*
X483197Y278923D01*
G37*
%LPD*%
%LPC*%
G36*
X492445Y265507D02*
X492445Y265507D01*
X490620Y266101D01*
X488910Y266972D01*
X487357Y268100D01*
X486000Y269457D01*
X484872Y271010D01*
X484001Y272720D01*
X483407Y274545D01*
X483197Y275877D01*
X493777Y275877D01*
X493777Y265297D01*
X492445Y265507D01*
G37*
%LPD*%
%LPC*%
G36*
X560899Y172949D02*
X560899Y172949D01*
X560899Y176991D01*
X570734Y176991D01*
X571381Y176818D01*
X571960Y176483D01*
X572433Y176010D01*
X572768Y175431D01*
X572941Y174784D01*
X572941Y172949D01*
X560899Y172949D01*
G37*
%LPD*%
%LPC*%
G36*
X560899Y185649D02*
X560899Y185649D01*
X560899Y189691D01*
X570734Y189691D01*
X571381Y189518D01*
X571960Y189183D01*
X572433Y188710D01*
X572768Y188131D01*
X572941Y187484D01*
X572941Y185649D01*
X560899Y185649D01*
G37*
%LPD*%
%LPC*%
G36*
X545859Y172949D02*
X545859Y172949D01*
X545859Y174784D01*
X546032Y175431D01*
X546367Y176010D01*
X546840Y176483D01*
X547419Y176818D01*
X548066Y176991D01*
X557901Y176991D01*
X557901Y172949D01*
X545859Y172949D01*
G37*
%LPD*%
%LPC*%
G36*
X545859Y185649D02*
X545859Y185649D01*
X545859Y187484D01*
X546032Y188131D01*
X546367Y188710D01*
X546840Y189183D01*
X547419Y189518D01*
X548066Y189691D01*
X557901Y189691D01*
X557901Y185649D01*
X545859Y185649D01*
G37*
%LPD*%
%LPC*%
G36*
X560899Y182651D02*
X560899Y182651D01*
X572941Y182651D01*
X572941Y180816D01*
X572768Y180169D01*
X572433Y179590D01*
X571960Y179117D01*
X571381Y178782D01*
X570734Y178609D01*
X560899Y178609D01*
X560899Y182651D01*
G37*
%LPD*%
%LPC*%
G36*
X560899Y169951D02*
X560899Y169951D01*
X572941Y169951D01*
X572941Y168116D01*
X572768Y167469D01*
X572433Y166890D01*
X571960Y166417D01*
X571381Y166082D01*
X570734Y165909D01*
X560899Y165909D01*
X560899Y169951D01*
G37*
%LPD*%
%LPC*%
G36*
X548066Y165909D02*
X548066Y165909D01*
X547419Y166082D01*
X546840Y166417D01*
X546367Y166890D01*
X546032Y167469D01*
X545859Y168116D01*
X545859Y169951D01*
X557901Y169951D01*
X557901Y165909D01*
X548066Y165909D01*
G37*
%LPD*%
%LPC*%
G36*
X548066Y178609D02*
X548066Y178609D01*
X547419Y178782D01*
X546840Y179117D01*
X546367Y179590D01*
X546032Y180169D01*
X545859Y180816D01*
X545859Y182651D01*
X557901Y182651D01*
X557901Y178609D01*
X548066Y178609D01*
G37*
%LPD*%
%LPC*%
G36*
X543423Y235203D02*
X543423Y235203D01*
X543423Y241221D01*
X547734Y241221D01*
X548381Y241048D01*
X548960Y240713D01*
X549433Y240240D01*
X549768Y239661D01*
X549941Y239014D01*
X549941Y235203D01*
X543423Y235203D01*
G37*
%LPD*%
%LPC*%
G36*
X533859Y235203D02*
X533859Y235203D01*
X533859Y239014D01*
X534032Y239661D01*
X534367Y240240D01*
X534840Y240713D01*
X535419Y241048D01*
X536066Y241221D01*
X540377Y241221D01*
X540377Y235203D01*
X533859Y235203D01*
G37*
%LPD*%
%LPC*%
G36*
X543423Y226139D02*
X543423Y226139D01*
X543423Y232157D01*
X549941Y232157D01*
X549941Y228346D01*
X549768Y227699D01*
X549433Y227120D01*
X548960Y226647D01*
X548381Y226312D01*
X547734Y226139D01*
X543423Y226139D01*
G37*
%LPD*%
%LPC*%
G36*
X536066Y226139D02*
X536066Y226139D01*
X535419Y226312D01*
X534840Y226647D01*
X534367Y227120D01*
X534032Y227699D01*
X533859Y228346D01*
X533859Y232157D01*
X540377Y232157D01*
X540377Y226139D01*
X536066Y226139D01*
G37*
%LPD*%
%LPC*%
G36*
X558799Y342899D02*
X558799Y342899D01*
X558799Y342901D01*
X558801Y342901D01*
X558801Y342899D01*
X558799Y342899D01*
G37*
%LPD*%
%LPC*%
G36*
X660399Y342899D02*
X660399Y342899D01*
X660399Y342901D01*
X660401Y342901D01*
X660401Y342899D01*
X660399Y342899D01*
G37*
%LPD*%
%LPC*%
G36*
X699499Y113899D02*
X699499Y113899D01*
X699499Y113901D01*
X699501Y113901D01*
X699501Y113899D01*
X699499Y113899D01*
G37*
%LPD*%
%LPC*%
G36*
X457199Y342899D02*
X457199Y342899D01*
X457199Y342901D01*
X457201Y342901D01*
X457201Y342899D01*
X457199Y342899D01*
G37*
%LPD*%
%LPC*%
G36*
X811999Y309799D02*
X811999Y309799D01*
X811999Y309801D01*
X812001Y309801D01*
X812001Y309799D01*
X811999Y309799D01*
G37*
%LPD*%
%LPC*%
G36*
X789939Y241299D02*
X789939Y241299D01*
X789939Y241301D01*
X789941Y241301D01*
X789941Y241299D01*
X789939Y241299D01*
G37*
%LPD*%
%LPC*%
G36*
X126999Y253999D02*
X126999Y253999D01*
X126999Y254001D01*
X127001Y254001D01*
X127001Y253999D01*
X126999Y253999D01*
G37*
%LPD*%
%LPC*%
G36*
X711999Y309799D02*
X711999Y309799D01*
X711999Y309801D01*
X712001Y309801D01*
X712001Y309799D01*
X711999Y309799D01*
G37*
%LPD*%
%LPC*%
G36*
X495299Y277399D02*
X495299Y277399D01*
X495299Y277401D01*
X495301Y277401D01*
X495301Y277399D01*
X495299Y277399D01*
G37*
%LPD*%
%LPC*%
G36*
X541899Y233679D02*
X541899Y233679D01*
X541899Y233681D01*
X541901Y233681D01*
X541901Y233679D01*
X541899Y233679D01*
G37*
%LPD*%
D10*
X824500Y63900D03*
X824500Y113900D03*
X699500Y113900D03*
X699500Y63900D03*
D11*
X541900Y233680D03*
X524900Y233680D03*
D12*
X559400Y184150D03*
X507400Y184150D03*
X559400Y171450D03*
X559400Y196850D03*
X559400Y209550D03*
X507400Y171450D03*
X507400Y196850D03*
X507400Y209550D03*
D13*
X712000Y309800D03*
X812000Y309800D03*
D14*
X762000Y241300D03*
X734060Y241300D03*
X789940Y241300D03*
D15*
X753500Y190500D03*
X770500Y190500D03*
D16*
X520700Y277400D03*
X546100Y277400D03*
X571500Y277400D03*
X495300Y277400D03*
D17*
X136144Y279400D02*
X117856Y279400D01*
X117856Y254000D02*
X136144Y254000D01*
X136144Y228600D02*
X117856Y228600D01*
X117856Y203200D02*
X136144Y203200D01*
X136144Y177800D02*
X117856Y177800D01*
X117856Y152400D02*
X136144Y152400D01*
X136144Y127000D02*
X117856Y127000D01*
X117856Y101600D02*
X136144Y101600D01*
X346456Y279400D02*
X364744Y279400D01*
X364744Y254000D02*
X346456Y254000D01*
X346456Y228600D02*
X364744Y228600D01*
X364744Y203200D02*
X346456Y203200D01*
X346456Y177800D02*
X364744Y177800D01*
X364744Y152400D02*
X346456Y152400D01*
X346456Y127000D02*
X364744Y127000D01*
X364744Y101600D02*
X346456Y101600D01*
D18*
X609600Y342900D03*
X660400Y342900D03*
X508000Y342900D03*
X558800Y342900D03*
X406400Y342900D03*
X457200Y342900D03*
D19*
X431800Y177800D02*
X355600Y177800D01*
X431800Y177800D02*
X457200Y152400D01*
X520700Y152400D01*
X521970Y209550D02*
X507400Y209550D01*
X521970Y209550D02*
X527050Y204470D01*
X527050Y158750D01*
X520700Y152400D01*
X507400Y196850D02*
X463550Y196850D01*
X431800Y228600D02*
X355600Y228600D01*
X431800Y228600D02*
X463550Y196850D01*
X431800Y203200D02*
X355600Y203200D01*
X450850Y184150D02*
X507400Y184150D01*
X450850Y184150D02*
X431800Y203200D01*
X355600Y279400D02*
X355600Y292100D01*
X368300Y304800D01*
X508000Y304800D01*
X520700Y292100D01*
X520700Y277400D01*
X734060Y241300D02*
X734060Y200660D01*
X744220Y190500D02*
X753500Y190500D01*
X744220Y190500D02*
X734060Y200660D01*
X524900Y224400D02*
X524900Y233680D01*
X539750Y209550D02*
X559400Y209550D01*
X539750Y209550D02*
X524900Y224400D01*
X524900Y273200D02*
X520700Y277400D01*
X524900Y273200D02*
X524900Y233680D01*
X609600Y215900D02*
X609600Y342900D01*
X609600Y215900D02*
X590550Y196850D01*
X559400Y196850D01*
X127000Y279400D02*
X127000Y317500D01*
X152400Y342900D01*
X406400Y342900D01*
X699500Y63900D02*
X699900Y63500D01*
X749300Y63500D01*
X770500Y84700D02*
X770500Y190500D01*
X770500Y84700D02*
X749300Y63500D01*
X699500Y63900D02*
X342500Y63900D01*
X317500Y88900D01*
X317500Y203200D01*
X292100Y228600D01*
X127000Y228600D01*
X330200Y254000D02*
X355600Y254000D01*
X330200Y254000D02*
X317500Y266700D01*
X317500Y304800D01*
X330200Y317500D01*
X495300Y317500D01*
X508000Y330200D01*
X508000Y342900D01*
M02*
