G04 EAGLE Gerber RS-274X export*
G75*
%MOMM*%
%FSLAX34Y34*%
%LPD*%
%IN*%
%IPPOS*%
%AMOC8*
5,1,8,0,0,1.08239X$1,22.5*%
G01*
%ADD10C,0.254000*%


D10*
X0Y30000D02*
X114Y27385D01*
X456Y24791D01*
X1022Y22235D01*
X1809Y19739D01*
X2811Y17321D01*
X4019Y15000D01*
X5425Y12793D01*
X7019Y10716D01*
X8787Y8787D01*
X10716Y7019D01*
X12793Y5425D01*
X15000Y4019D01*
X17321Y2811D01*
X19739Y1809D01*
X22235Y1022D01*
X24791Y456D01*
X27385Y114D01*
X30000Y0D01*
X897100Y0D01*
X899715Y114D01*
X902309Y456D01*
X904865Y1022D01*
X907361Y1809D01*
X909779Y2811D01*
X912100Y4019D01*
X914307Y5425D01*
X916384Y7019D01*
X918313Y8787D01*
X920081Y10716D01*
X921675Y12793D01*
X923081Y15000D01*
X924289Y17321D01*
X925291Y19739D01*
X926078Y22235D01*
X926644Y24791D01*
X926986Y27385D01*
X927100Y30000D01*
X927100Y376400D01*
X926986Y379015D01*
X926644Y381609D01*
X926078Y384165D01*
X925291Y386661D01*
X924289Y389079D01*
X923081Y391400D01*
X921675Y393607D01*
X920081Y395684D01*
X918313Y397613D01*
X916384Y399381D01*
X914307Y400975D01*
X912100Y402381D01*
X909779Y403589D01*
X907361Y404591D01*
X904865Y405378D01*
X902309Y405944D01*
X899715Y406286D01*
X897100Y406400D01*
X30000Y406400D01*
X27385Y406286D01*
X24791Y405944D01*
X22235Y405378D01*
X19739Y404591D01*
X17321Y403589D01*
X15000Y402381D01*
X12793Y400975D01*
X10716Y399381D01*
X8787Y397613D01*
X7019Y395684D01*
X5425Y393607D01*
X4019Y391400D01*
X2811Y389079D01*
X1809Y386661D01*
X1022Y384165D01*
X456Y381609D01*
X114Y379015D01*
X0Y376400D01*
X0Y30000D01*
X68300Y355027D02*
X68225Y353884D01*
X68076Y352748D01*
X67852Y351624D01*
X67555Y350517D01*
X67187Y349432D01*
X66749Y348374D01*
X66242Y347346D01*
X65669Y346354D01*
X65032Y345401D01*
X64335Y344492D01*
X63579Y343631D01*
X62769Y342821D01*
X61908Y342065D01*
X60999Y341368D01*
X60046Y340731D01*
X59054Y340158D01*
X58026Y339651D01*
X56968Y339213D01*
X55883Y338845D01*
X54776Y338548D01*
X53652Y338325D01*
X52516Y338175D01*
X51373Y338100D01*
X50227Y338100D01*
X49084Y338175D01*
X47948Y338325D01*
X46824Y338548D01*
X45717Y338845D01*
X44632Y339213D01*
X43574Y339651D01*
X42546Y340158D01*
X41554Y340731D01*
X40601Y341368D01*
X39692Y342065D01*
X38831Y342821D01*
X38021Y343631D01*
X37265Y344492D01*
X36568Y345401D01*
X35931Y346354D01*
X35358Y347346D01*
X34851Y348374D01*
X34413Y349432D01*
X34045Y350517D01*
X33748Y351624D01*
X33525Y352748D01*
X33375Y353884D01*
X33300Y355027D01*
X33300Y356173D01*
X33375Y357316D01*
X33525Y358452D01*
X33748Y359576D01*
X34045Y360683D01*
X34413Y361768D01*
X34851Y362826D01*
X35358Y363854D01*
X35931Y364846D01*
X36568Y365799D01*
X37265Y366708D01*
X38021Y367569D01*
X38831Y368379D01*
X39692Y369135D01*
X40601Y369832D01*
X41554Y370469D01*
X42546Y371042D01*
X43574Y371549D01*
X44632Y371987D01*
X45717Y372355D01*
X46824Y372652D01*
X47948Y372876D01*
X49084Y373025D01*
X50227Y373100D01*
X51373Y373100D01*
X52516Y373025D01*
X53652Y372876D01*
X54776Y372652D01*
X55883Y372355D01*
X56968Y371987D01*
X58026Y371549D01*
X59054Y371042D01*
X60046Y370469D01*
X60999Y369832D01*
X61908Y369135D01*
X62769Y368379D01*
X63579Y367569D01*
X64335Y366708D01*
X65032Y365799D01*
X65669Y364846D01*
X66242Y363854D01*
X66749Y362826D01*
X67187Y361768D01*
X67555Y360683D01*
X67852Y359576D01*
X68076Y358452D01*
X68225Y357316D01*
X68300Y356173D01*
X68300Y355027D01*
X68300Y50227D02*
X68225Y49084D01*
X68076Y47948D01*
X67852Y46824D01*
X67555Y45717D01*
X67187Y44632D01*
X66749Y43574D01*
X66242Y42546D01*
X65669Y41554D01*
X65032Y40601D01*
X64335Y39692D01*
X63579Y38831D01*
X62769Y38021D01*
X61908Y37265D01*
X60999Y36568D01*
X60046Y35931D01*
X59054Y35358D01*
X58026Y34851D01*
X56968Y34413D01*
X55883Y34045D01*
X54776Y33748D01*
X53652Y33525D01*
X52516Y33375D01*
X51373Y33300D01*
X50227Y33300D01*
X49084Y33375D01*
X47948Y33525D01*
X46824Y33748D01*
X45717Y34045D01*
X44632Y34413D01*
X43574Y34851D01*
X42546Y35358D01*
X41554Y35931D01*
X40601Y36568D01*
X39692Y37265D01*
X38831Y38021D01*
X38021Y38831D01*
X37265Y39692D01*
X36568Y40601D01*
X35931Y41554D01*
X35358Y42546D01*
X34851Y43574D01*
X34413Y44632D01*
X34045Y45717D01*
X33748Y46824D01*
X33525Y47948D01*
X33375Y49084D01*
X33300Y50227D01*
X33300Y51373D01*
X33375Y52516D01*
X33525Y53652D01*
X33748Y54776D01*
X34045Y55883D01*
X34413Y56968D01*
X34851Y58026D01*
X35358Y59054D01*
X35931Y60046D01*
X36568Y60999D01*
X37265Y61908D01*
X38021Y62769D01*
X38831Y63579D01*
X39692Y64335D01*
X40601Y65032D01*
X41554Y65669D01*
X42546Y66242D01*
X43574Y66749D01*
X44632Y67187D01*
X45717Y67555D01*
X46824Y67852D01*
X47948Y68076D01*
X49084Y68225D01*
X50227Y68300D01*
X51373Y68300D01*
X52516Y68225D01*
X53652Y68076D01*
X54776Y67852D01*
X55883Y67555D01*
X56968Y67187D01*
X58026Y66749D01*
X59054Y66242D01*
X60046Y65669D01*
X60999Y65032D01*
X61908Y64335D01*
X62769Y63579D01*
X63579Y62769D01*
X64335Y61908D01*
X65032Y60999D01*
X65669Y60046D01*
X66242Y59054D01*
X66749Y58026D01*
X67187Y56968D01*
X67555Y55883D01*
X67852Y54776D01*
X68076Y53652D01*
X68225Y52516D01*
X68300Y51373D01*
X68300Y50227D01*
X893800Y50227D02*
X893725Y49084D01*
X893576Y47948D01*
X893352Y46824D01*
X893055Y45717D01*
X892687Y44632D01*
X892249Y43574D01*
X891742Y42546D01*
X891169Y41554D01*
X890532Y40601D01*
X889835Y39692D01*
X889079Y38831D01*
X888269Y38021D01*
X887408Y37265D01*
X886499Y36568D01*
X885546Y35931D01*
X884554Y35358D01*
X883526Y34851D01*
X882468Y34413D01*
X881383Y34045D01*
X880276Y33748D01*
X879152Y33525D01*
X878016Y33375D01*
X876873Y33300D01*
X875727Y33300D01*
X874584Y33375D01*
X873448Y33525D01*
X872324Y33748D01*
X871217Y34045D01*
X870132Y34413D01*
X869074Y34851D01*
X868046Y35358D01*
X867054Y35931D01*
X866101Y36568D01*
X865192Y37265D01*
X864331Y38021D01*
X863521Y38831D01*
X862765Y39692D01*
X862068Y40601D01*
X861431Y41554D01*
X860858Y42546D01*
X860351Y43574D01*
X859913Y44632D01*
X859545Y45717D01*
X859248Y46824D01*
X859025Y47948D01*
X858875Y49084D01*
X858800Y50227D01*
X858800Y51373D01*
X858875Y52516D01*
X859025Y53652D01*
X859248Y54776D01*
X859545Y55883D01*
X859913Y56968D01*
X860351Y58026D01*
X860858Y59054D01*
X861431Y60046D01*
X862068Y60999D01*
X862765Y61908D01*
X863521Y62769D01*
X864331Y63579D01*
X865192Y64335D01*
X866101Y65032D01*
X867054Y65669D01*
X868046Y66242D01*
X869074Y66749D01*
X870132Y67187D01*
X871217Y67555D01*
X872324Y67852D01*
X873448Y68076D01*
X874584Y68225D01*
X875727Y68300D01*
X876873Y68300D01*
X878016Y68225D01*
X879152Y68076D01*
X880276Y67852D01*
X881383Y67555D01*
X882468Y67187D01*
X883526Y66749D01*
X884554Y66242D01*
X885546Y65669D01*
X886499Y65032D01*
X887408Y64335D01*
X888269Y63579D01*
X889079Y62769D01*
X889835Y61908D01*
X890532Y60999D01*
X891169Y60046D01*
X891742Y59054D01*
X892249Y58026D01*
X892687Y56968D01*
X893055Y55883D01*
X893352Y54776D01*
X893576Y53652D01*
X893725Y52516D01*
X893800Y51373D01*
X893800Y50227D01*
X893800Y355027D02*
X893725Y353884D01*
X893576Y352748D01*
X893352Y351624D01*
X893055Y350517D01*
X892687Y349432D01*
X892249Y348374D01*
X891742Y347346D01*
X891169Y346354D01*
X890532Y345401D01*
X889835Y344492D01*
X889079Y343631D01*
X888269Y342821D01*
X887408Y342065D01*
X886499Y341368D01*
X885546Y340731D01*
X884554Y340158D01*
X883526Y339651D01*
X882468Y339213D01*
X881383Y338845D01*
X880276Y338548D01*
X879152Y338325D01*
X878016Y338175D01*
X876873Y338100D01*
X875727Y338100D01*
X874584Y338175D01*
X873448Y338325D01*
X872324Y338548D01*
X871217Y338845D01*
X870132Y339213D01*
X869074Y339651D01*
X868046Y340158D01*
X867054Y340731D01*
X866101Y341368D01*
X865192Y342065D01*
X864331Y342821D01*
X863521Y343631D01*
X862765Y344492D01*
X862068Y345401D01*
X861431Y346354D01*
X860858Y347346D01*
X860351Y348374D01*
X859913Y349432D01*
X859545Y350517D01*
X859248Y351624D01*
X859025Y352748D01*
X858875Y353884D01*
X858800Y355027D01*
X858800Y356173D01*
X858875Y357316D01*
X859025Y358452D01*
X859248Y359576D01*
X859545Y360683D01*
X859913Y361768D01*
X860351Y362826D01*
X860858Y363854D01*
X861431Y364846D01*
X862068Y365799D01*
X862765Y366708D01*
X863521Y367569D01*
X864331Y368379D01*
X865192Y369135D01*
X866101Y369832D01*
X867054Y370469D01*
X868046Y371042D01*
X869074Y371549D01*
X870132Y371987D01*
X871217Y372355D01*
X872324Y372652D01*
X873448Y372876D01*
X874584Y373025D01*
X875727Y373100D01*
X876873Y373100D01*
X878016Y373025D01*
X879152Y372876D01*
X880276Y372652D01*
X881383Y372355D01*
X882468Y371987D01*
X883526Y371549D01*
X884554Y371042D01*
X885546Y370469D01*
X886499Y369832D01*
X887408Y369135D01*
X888269Y368379D01*
X889079Y367569D01*
X889835Y366708D01*
X890532Y365799D01*
X891169Y364846D01*
X891742Y363854D01*
X892249Y362826D01*
X892687Y361768D01*
X893055Y360683D01*
X893352Y359576D01*
X893576Y358452D01*
X893725Y357316D01*
X893800Y356173D01*
X893800Y355027D01*
X426900Y271968D02*
X426832Y271106D01*
X426697Y270252D01*
X426495Y269412D01*
X426228Y268590D01*
X425897Y267791D01*
X425505Y267021D01*
X425053Y266284D01*
X424545Y265585D01*
X423984Y264927D01*
X423373Y264316D01*
X422715Y263755D01*
X422016Y263247D01*
X421279Y262795D01*
X420509Y262403D01*
X419710Y262072D01*
X418888Y261805D01*
X418048Y261603D01*
X417194Y261468D01*
X416332Y261400D01*
X415468Y261400D01*
X414606Y261468D01*
X413752Y261603D01*
X412912Y261805D01*
X412090Y262072D01*
X411291Y262403D01*
X410521Y262795D01*
X409784Y263247D01*
X409085Y263755D01*
X408427Y264316D01*
X407816Y264927D01*
X407255Y265585D01*
X406747Y266284D01*
X406295Y267021D01*
X405903Y267791D01*
X405572Y268590D01*
X405305Y269412D01*
X405103Y270252D01*
X404968Y271106D01*
X404900Y271968D01*
X404900Y272832D01*
X404968Y273694D01*
X405103Y274548D01*
X405305Y275388D01*
X405572Y276210D01*
X405903Y277009D01*
X406295Y277779D01*
X406747Y278516D01*
X407255Y279215D01*
X407816Y279873D01*
X408427Y280484D01*
X409085Y281045D01*
X409784Y281553D01*
X410521Y282005D01*
X411291Y282397D01*
X412090Y282728D01*
X412912Y282995D01*
X413752Y283197D01*
X414606Y283332D01*
X415468Y283400D01*
X416332Y283400D01*
X417194Y283332D01*
X418048Y283197D01*
X418888Y282995D01*
X419710Y282728D01*
X420509Y282397D01*
X421279Y282005D01*
X422016Y281553D01*
X422715Y281045D01*
X423373Y280484D01*
X423984Y279873D01*
X424545Y279215D01*
X425053Y278516D01*
X425505Y277779D01*
X425897Y277009D01*
X426228Y276210D01*
X426495Y275388D01*
X426697Y274548D01*
X426832Y273694D01*
X426900Y272832D01*
X426900Y271968D01*
X661900Y271968D02*
X661832Y271106D01*
X661697Y270252D01*
X661495Y269412D01*
X661228Y268590D01*
X660897Y267791D01*
X660505Y267021D01*
X660053Y266284D01*
X659545Y265585D01*
X658984Y264927D01*
X658373Y264316D01*
X657715Y263755D01*
X657016Y263247D01*
X656279Y262795D01*
X655509Y262403D01*
X654710Y262072D01*
X653888Y261805D01*
X653048Y261603D01*
X652194Y261468D01*
X651332Y261400D01*
X650468Y261400D01*
X649606Y261468D01*
X648752Y261603D01*
X647912Y261805D01*
X647090Y262072D01*
X646291Y262403D01*
X645521Y262795D01*
X644784Y263247D01*
X644085Y263755D01*
X643427Y264316D01*
X642816Y264927D01*
X642255Y265585D01*
X641747Y266284D01*
X641295Y267021D01*
X640903Y267791D01*
X640572Y268590D01*
X640305Y269412D01*
X640103Y270252D01*
X639968Y271106D01*
X639900Y271968D01*
X639900Y272832D01*
X639968Y273694D01*
X640103Y274548D01*
X640305Y275388D01*
X640572Y276210D01*
X640903Y277009D01*
X641295Y277779D01*
X641747Y278516D01*
X642255Y279215D01*
X642816Y279873D01*
X643427Y280484D01*
X644085Y281045D01*
X644784Y281553D01*
X645521Y282005D01*
X646291Y282397D01*
X647090Y282728D01*
X647912Y282995D01*
X648752Y283197D01*
X649606Y283332D01*
X650468Y283400D01*
X651332Y283400D01*
X652194Y283332D01*
X653048Y283197D01*
X653888Y282995D01*
X654710Y282728D01*
X655509Y282397D01*
X656279Y282005D01*
X657016Y281553D01*
X657715Y281045D01*
X658373Y280484D01*
X658984Y279873D01*
X659545Y279215D01*
X660053Y278516D01*
X660505Y277779D01*
X660897Y277009D01*
X661228Y276210D01*
X661495Y275388D01*
X661697Y274548D01*
X661832Y273694D01*
X661900Y272832D01*
X661900Y271968D01*
X661900Y31968D02*
X661832Y31106D01*
X661697Y30252D01*
X661495Y29412D01*
X661228Y28590D01*
X660897Y27791D01*
X660505Y27021D01*
X660053Y26284D01*
X659545Y25585D01*
X658984Y24927D01*
X658373Y24316D01*
X657715Y23755D01*
X657016Y23247D01*
X656279Y22795D01*
X655509Y22403D01*
X654710Y22072D01*
X653888Y21805D01*
X653048Y21603D01*
X652194Y21468D01*
X651332Y21400D01*
X650468Y21400D01*
X649606Y21468D01*
X648752Y21603D01*
X647912Y21805D01*
X647090Y22072D01*
X646291Y22403D01*
X645521Y22795D01*
X644784Y23247D01*
X644085Y23755D01*
X643427Y24316D01*
X642816Y24927D01*
X642255Y25585D01*
X641747Y26284D01*
X641295Y27021D01*
X640903Y27791D01*
X640572Y28590D01*
X640305Y29412D01*
X640103Y30252D01*
X639968Y31106D01*
X639900Y31968D01*
X639900Y32832D01*
X639968Y33694D01*
X640103Y34548D01*
X640305Y35388D01*
X640572Y36210D01*
X640903Y37009D01*
X641295Y37779D01*
X641747Y38516D01*
X642255Y39215D01*
X642816Y39873D01*
X643427Y40484D01*
X644085Y41045D01*
X644784Y41553D01*
X645521Y42005D01*
X646291Y42397D01*
X647090Y42728D01*
X647912Y42995D01*
X648752Y43197D01*
X649606Y43332D01*
X650468Y43400D01*
X651332Y43400D01*
X652194Y43332D01*
X653048Y43197D01*
X653888Y42995D01*
X654710Y42728D01*
X655509Y42397D01*
X656279Y42005D01*
X657016Y41553D01*
X657715Y41045D01*
X658373Y40484D01*
X658984Y39873D01*
X659545Y39215D01*
X660053Y38516D01*
X660505Y37779D01*
X660897Y37009D01*
X661228Y36210D01*
X661495Y35388D01*
X661697Y34548D01*
X661832Y33694D01*
X661900Y32832D01*
X661900Y31968D01*
X426900Y31968D02*
X426832Y31106D01*
X426697Y30252D01*
X426495Y29412D01*
X426228Y28590D01*
X425897Y27791D01*
X425505Y27021D01*
X425053Y26284D01*
X424545Y25585D01*
X423984Y24927D01*
X423373Y24316D01*
X422715Y23755D01*
X422016Y23247D01*
X421279Y22795D01*
X420509Y22403D01*
X419710Y22072D01*
X418888Y21805D01*
X418048Y21603D01*
X417194Y21468D01*
X416332Y21400D01*
X415468Y21400D01*
X414606Y21468D01*
X413752Y21603D01*
X412912Y21805D01*
X412090Y22072D01*
X411291Y22403D01*
X410521Y22795D01*
X409784Y23247D01*
X409085Y23755D01*
X408427Y24316D01*
X407816Y24927D01*
X407255Y25585D01*
X406747Y26284D01*
X406295Y27021D01*
X405903Y27791D01*
X405572Y28590D01*
X405305Y29412D01*
X405103Y30252D01*
X404968Y31106D01*
X404900Y31968D01*
X404900Y32832D01*
X404968Y33694D01*
X405103Y34548D01*
X405305Y35388D01*
X405572Y36210D01*
X405903Y37009D01*
X406295Y37779D01*
X406747Y38516D01*
X407255Y39215D01*
X407816Y39873D01*
X408427Y40484D01*
X409085Y41045D01*
X409784Y41553D01*
X410521Y42005D01*
X411291Y42397D01*
X412090Y42728D01*
X412912Y42995D01*
X413752Y43197D01*
X414606Y43332D01*
X415468Y43400D01*
X416332Y43400D01*
X417194Y43332D01*
X418048Y43197D01*
X418888Y42995D01*
X419710Y42728D01*
X420509Y42397D01*
X421279Y42005D01*
X422016Y41553D01*
X422715Y41045D01*
X423373Y40484D01*
X423984Y39873D01*
X424545Y39215D01*
X425053Y38516D01*
X425505Y37779D01*
X425897Y37009D01*
X426228Y36210D01*
X426495Y35388D01*
X426697Y34548D01*
X426832Y33694D01*
X426900Y32832D01*
X426900Y31968D01*
M02*
